<?xml version="1.0" standalone="no"?>
 <!DOCTYPE svg PUBLIC "-//W3C//DTD SVG 1.1//EN" 
 "http://www.w3.org/Graphics/SVG/1.1/DTD/svg11.dtd"> 
<svg
  xmlns:svg="http://www.w3.org/2000/svg"
  xmlns="http://www.w3.org/2000/svg"
  xmlns:xlink="http://www.w3.org/1999/xlink"
  version="1.1"
  width="29.700220cm" height="21.000720cm" viewBox="0 0 116930 82680">
<title>SVG Picture created as mcu_board-F_Cu.svg date 2021/12/15 17:42:31 </title>
  <desc>Picture generated by PCBNEW </desc>
<g style="fill:#000000; fill-opacity:1;stroke:#000000; stroke-opacity:1;
stroke-linecap:round; stroke-linejoin:round;"
 transform="translate(0 0) scale(1 1)">
</g>
<g style="fill:#000000; fill-opacity:0.0; 
stroke:#000000; stroke-width:-0.000393701; stroke-opacity:1; 
stroke-linecap:round; stroke-linejoin:round;">
</g>
<g style="fill:#000000; fill-opacity:0.0; 
stroke:#000000; stroke-width:39.3701; stroke-opacity:1; 
stroke-linecap:round; stroke-linejoin:round;">
</g>
<g style="fill:#000000; fill-opacity:0.0; 
stroke:#000000; stroke-width:59.0551; stroke-opacity:1; 
stroke-linecap:round; stroke-linejoin:round;">
<rect x="69685.9" y="65357.2" width="42519.7" height="12598.4" rx="0" />
</g>
<g style="fill:#000000; fill-opacity:0.0; 
stroke:#000000; stroke-width:39.3701; stroke-opacity:1; 
stroke-linecap:round; stroke-linejoin:round;">
</g>
<g style="fill:#000000; fill-opacity:0.0; 
stroke:#000000; stroke-width:59.0551; stroke-opacity:1; 
stroke-linecap:round; stroke-linejoin:round;">
<rect x="3937.01" y="3937.01" width="109056" height="74806" rx="0" />
</g>
<g style="fill:#000000; fill-opacity:0.0; 
stroke:#000000; stroke-width:39.3701; stroke-opacity:1; 
stroke-linecap:round; stroke-linejoin:round;">
</g>
<g style="fill:#000000; fill-opacity:0.0; 
stroke:#000000; stroke-width:59.0551; stroke-opacity:1; 
stroke-linecap:round; stroke-linejoin:round;">
<rect x="4724.41" y="4724.41" width="107481" height="73231.2" rx="0" />
</g>
<g style="fill:#000000; fill-opacity:0.0; 
stroke:#000000; stroke-width:39.3701; stroke-opacity:1; 
stroke-linecap:round; stroke-linejoin:round;">
</g>
<g style="fill:#000000; fill-opacity:0.0; 
stroke:#000000; stroke-width:59.0551; stroke-opacity:1; 
stroke-linecap:round; stroke-linejoin:round;">
<path d="M23622 4724
L23622 3937
" />
</g>
<g style="fill:#000000; fill-opacity:0.0; 
stroke:#000000; stroke-width:39.3701; stroke-opacity:1; 
stroke-linecap:round; stroke-linejoin:round;">
</g>
<g style="fill:#000000; fill-opacity:0.0; 
stroke:#000000; stroke-width:59.0551; stroke-opacity:1; 
stroke-linecap:round; stroke-linejoin:round;">
<path d="M43307 4724
L43307 3937
" />
</g>
<g style="fill:#000000; fill-opacity:0.0; 
stroke:#000000; stroke-width:39.3701; stroke-opacity:1; 
stroke-linecap:round; stroke-linejoin:round;">
</g>
<g style="fill:#000000; fill-opacity:0.0; 
stroke:#000000; stroke-width:59.0551; stroke-opacity:1; 
stroke-linecap:round; stroke-linejoin:round;">
<path d="M62992 4724
L62992 3937
" />
</g>
<g style="fill:#000000; fill-opacity:0.0; 
stroke:#000000; stroke-width:39.3701; stroke-opacity:1; 
stroke-linecap:round; stroke-linejoin:round;">
</g>
<g style="fill:#000000; fill-opacity:0.0; 
stroke:#000000; stroke-width:59.0551; stroke-opacity:1; 
stroke-linecap:round; stroke-linejoin:round;">
<path d="M82677 4724
L82677 3937
" />
</g>
<g style="fill:#000000; fill-opacity:0.0; 
stroke:#000000; stroke-width:39.3701; stroke-opacity:1; 
stroke-linecap:round; stroke-linejoin:round;">
</g>
<g style="fill:#000000; fill-opacity:0.0; 
stroke:#000000; stroke-width:59.0551; stroke-opacity:1; 
stroke-linecap:round; stroke-linejoin:round;">
<path d="M102362 4724
L102362 3937
" />
</g>
<g style="fill:#000000; fill-opacity:0.0; 
stroke:#000000; stroke-width:39.3701; stroke-opacity:1; 
stroke-linecap:round; stroke-linejoin:round;">
</g>
<g style="fill:#000000; fill-opacity:0.0; 
stroke:#000000; stroke-width:59.0551; stroke-opacity:1; 
stroke-linecap:round; stroke-linejoin:round;">
<text x="13779.5" y="4586.61"
textLength="546.494" font-size="682.415" lengthAdjust="spacingAndGlyphs"
text-anchor="start" opacity="0">1</text>
<path d="M14199 4562
L13906 4562
" />
<path d="M14052 4562
L14052 4050
L14004 4123
L13955 4172
L13906 4196
" />
</g>
<g style="fill:#000000; fill-opacity:0.0; 
stroke:#000000; stroke-width:39.3701; stroke-opacity:1; 
stroke-linecap:round; stroke-linejoin:round;">
</g>
<g style="fill:#000000; fill-opacity:0.0; 
stroke:#000000; stroke-width:59.0551; stroke-opacity:1; 
stroke-linecap:round; stroke-linejoin:round;">
<text x="33464.6" y="4586.61"
textLength="546.494" font-size="682.415" lengthAdjust="spacingAndGlyphs"
text-anchor="start" opacity="0">2</text>
<path d="M33591 4099
L33615 4074
L33664 4050
L33786 4050
L33835 4074
L33859 4099
L33884 4147
L33884 4196
L33859 4269
L33567 4562
L33884 4562
" />
</g>
<g style="fill:#000000; fill-opacity:0.0; 
stroke:#000000; stroke-width:39.3701; stroke-opacity:1; 
stroke-linecap:round; stroke-linejoin:round;">
</g>
<g style="fill:#000000; fill-opacity:0.0; 
stroke:#000000; stroke-width:59.0551; stroke-opacity:1; 
stroke-linecap:round; stroke-linejoin:round;">
<text x="53149.6" y="4586.61"
textLength="546.494" font-size="682.415" lengthAdjust="spacingAndGlyphs"
text-anchor="start" opacity="0">3</text>
<path d="M53252 4050
L53569 4050
L53398 4245
L53471 4245
L53520 4269
L53544 4294
L53569 4342
L53569 4464
L53544 4513
L53520 4537
L53471 4562
L53325 4562
L53276 4537
L53252 4513
" />
</g>
<g style="fill:#000000; fill-opacity:0.0; 
stroke:#000000; stroke-width:39.3701; stroke-opacity:1; 
stroke-linecap:round; stroke-linejoin:round;">
</g>
<g style="fill:#000000; fill-opacity:0.0; 
stroke:#000000; stroke-width:59.0551; stroke-opacity:1; 
stroke-linecap:round; stroke-linejoin:round;">
<text x="72834.6" y="4586.61"
textLength="546.494" font-size="682.415" lengthAdjust="spacingAndGlyphs"
text-anchor="start" opacity="0">4</text>
<path d="M73205 4221
L73205 4562
" />
<path d="M73083 4026
L72961 4391
L73278 4391
" />
</g>
<g style="fill:#000000; fill-opacity:0.0; 
stroke:#000000; stroke-width:39.3701; stroke-opacity:1; 
stroke-linecap:round; stroke-linejoin:round;">
</g>
<g style="fill:#000000; fill-opacity:0.0; 
stroke:#000000; stroke-width:59.0551; stroke-opacity:1; 
stroke-linecap:round; stroke-linejoin:round;">
<text x="92519.7" y="4586.61"
textLength="546.494" font-size="682.415" lengthAdjust="spacingAndGlyphs"
text-anchor="start" opacity="0">5</text>
<path d="M92914 4050
L92671 4050
L92646 4294
L92671 4269
L92719 4245
L92841 4245
L92890 4269
L92914 4294
L92939 4342
L92939 4464
L92914 4513
L92890 4537
L92841 4562
L92719 4562
L92671 4537
L92646 4513
" />
</g>
<g style="fill:#000000; fill-opacity:0.0; 
stroke:#000000; stroke-width:39.3701; stroke-opacity:1; 
stroke-linecap:round; stroke-linejoin:round;">
</g>
<g style="fill:#000000; fill-opacity:0.0; 
stroke:#000000; stroke-width:59.0551; stroke-opacity:1; 
stroke-linecap:round; stroke-linejoin:round;">
<text x="112205" y="4586.61"
textLength="546.494" font-size="682.415" lengthAdjust="spacingAndGlyphs"
text-anchor="start" opacity="0">6</text>
<path d="M112575 4050
L112477 4050
L112429 4074
L112404 4099
L112356 4172
L112331 4269
L112331 4464
L112356 4513
L112380 4537
L112429 4562
L112526 4562
L112575 4537
L112599 4513
L112624 4464
L112624 4342
L112599 4294
L112575 4269
L112526 4245
L112429 4245
L112380 4269
L112356 4294
L112331 4342
" />
</g>
<g style="fill:#000000; fill-opacity:0.0; 
stroke:#000000; stroke-width:39.3701; stroke-opacity:1; 
stroke-linecap:round; stroke-linejoin:round;">
</g>
<g style="fill:#000000; fill-opacity:0.0; 
stroke:#000000; stroke-width:59.0551; stroke-opacity:1; 
stroke-linecap:round; stroke-linejoin:round;">
<path d="M23622 77955
L23622 78742
" />
</g>
<g style="fill:#000000; fill-opacity:0.0; 
stroke:#000000; stroke-width:39.3701; stroke-opacity:1; 
stroke-linecap:round; stroke-linejoin:round;">
</g>
<g style="fill:#000000; fill-opacity:0.0; 
stroke:#000000; stroke-width:59.0551; stroke-opacity:1; 
stroke-linecap:round; stroke-linejoin:round;">
<path d="M43307 77955
L43307 78742
" />
</g>
<g style="fill:#000000; fill-opacity:0.0; 
stroke:#000000; stroke-width:39.3701; stroke-opacity:1; 
stroke-linecap:round; stroke-linejoin:round;">
</g>
<g style="fill:#000000; fill-opacity:0.0; 
stroke:#000000; stroke-width:59.0551; stroke-opacity:1; 
stroke-linecap:round; stroke-linejoin:round;">
<path d="M62992 77955
L62992 78742
" />
</g>
<g style="fill:#000000; fill-opacity:0.0; 
stroke:#000000; stroke-width:39.3701; stroke-opacity:1; 
stroke-linecap:round; stroke-linejoin:round;">
</g>
<g style="fill:#000000; fill-opacity:0.0; 
stroke:#000000; stroke-width:59.0551; stroke-opacity:1; 
stroke-linecap:round; stroke-linejoin:round;">
<path d="M82677 77955
L82677 78742
" />
</g>
<g style="fill:#000000; fill-opacity:0.0; 
stroke:#000000; stroke-width:39.3701; stroke-opacity:1; 
stroke-linecap:round; stroke-linejoin:round;">
</g>
<g style="fill:#000000; fill-opacity:0.0; 
stroke:#000000; stroke-width:59.0551; stroke-opacity:1; 
stroke-linecap:round; stroke-linejoin:round;">
<path d="M102362 77955
L102362 78742
" />
</g>
<g style="fill:#000000; fill-opacity:0.0; 
stroke:#000000; stroke-width:39.3701; stroke-opacity:1; 
stroke-linecap:round; stroke-linejoin:round;">
</g>
<g style="fill:#000000; fill-opacity:0.0; 
stroke:#000000; stroke-width:59.0551; stroke-opacity:1; 
stroke-linecap:round; stroke-linejoin:round;">
<text x="13779.5" y="78605.2"
textLength="546.494" font-size="682.415" lengthAdjust="spacingAndGlyphs"
text-anchor="start" opacity="0">1</text>
<path d="M14199 78580
L13906 78580
" />
<path d="M14052 78580
L14052 78069
L14004 78142
L13955 78190
L13906 78215
" />
</g>
<g style="fill:#000000; fill-opacity:0.0; 
stroke:#000000; stroke-width:39.3701; stroke-opacity:1; 
stroke-linecap:round; stroke-linejoin:round;">
</g>
<g style="fill:#000000; fill-opacity:0.0; 
stroke:#000000; stroke-width:59.0551; stroke-opacity:1; 
stroke-linecap:round; stroke-linejoin:round;">
<text x="33464.6" y="78605.2"
textLength="546.494" font-size="682.415" lengthAdjust="spacingAndGlyphs"
text-anchor="start" opacity="0">2</text>
<path d="M33591 78117
L33615 78093
L33664 78069
L33786 78069
L33835 78093
L33859 78117
L33884 78166
L33884 78215
L33859 78288
L33567 78580
L33884 78580
" />
</g>
<g style="fill:#000000; fill-opacity:0.0; 
stroke:#000000; stroke-width:39.3701; stroke-opacity:1; 
stroke-linecap:round; stroke-linejoin:round;">
</g>
<g style="fill:#000000; fill-opacity:0.0; 
stroke:#000000; stroke-width:59.0551; stroke-opacity:1; 
stroke-linecap:round; stroke-linejoin:round;">
<text x="53149.6" y="78605.2"
textLength="546.494" font-size="682.415" lengthAdjust="spacingAndGlyphs"
text-anchor="start" opacity="0">3</text>
<path d="M53252 78069
L53569 78069
L53398 78263
L53471 78263
L53520 78288
L53544 78312
L53569 78361
L53569 78483
L53544 78532
L53520 78556
L53471 78580
L53325 78580
L53276 78556
L53252 78532
" />
</g>
<g style="fill:#000000; fill-opacity:0.0; 
stroke:#000000; stroke-width:39.3701; stroke-opacity:1; 
stroke-linecap:round; stroke-linejoin:round;">
</g>
<g style="fill:#000000; fill-opacity:0.0; 
stroke:#000000; stroke-width:59.0551; stroke-opacity:1; 
stroke-linecap:round; stroke-linejoin:round;">
<text x="72834.6" y="78605.2"
textLength="546.494" font-size="682.415" lengthAdjust="spacingAndGlyphs"
text-anchor="start" opacity="0">4</text>
<path d="M73205 78239
L73205 78580
" />
<path d="M73083 78044
L72961 78410
L73278 78410
" />
</g>
<g style="fill:#000000; fill-opacity:0.0; 
stroke:#000000; stroke-width:39.3701; stroke-opacity:1; 
stroke-linecap:round; stroke-linejoin:round;">
</g>
<g style="fill:#000000; fill-opacity:0.0; 
stroke:#000000; stroke-width:59.0551; stroke-opacity:1; 
stroke-linecap:round; stroke-linejoin:round;">
<text x="92519.7" y="78605.2"
textLength="546.494" font-size="682.415" lengthAdjust="spacingAndGlyphs"
text-anchor="start" opacity="0">5</text>
<path d="M92914 78069
L92671 78069
L92646 78312
L92671 78288
L92719 78263
L92841 78263
L92890 78288
L92914 78312
L92939 78361
L92939 78483
L92914 78532
L92890 78556
L92841 78580
L92719 78580
L92671 78556
L92646 78532
" />
</g>
<g style="fill:#000000; fill-opacity:0.0; 
stroke:#000000; stroke-width:39.3701; stroke-opacity:1; 
stroke-linecap:round; stroke-linejoin:round;">
</g>
<g style="fill:#000000; fill-opacity:0.0; 
stroke:#000000; stroke-width:59.0551; stroke-opacity:1; 
stroke-linecap:round; stroke-linejoin:round;">
<text x="112205" y="78605.2"
textLength="546.494" font-size="682.415" lengthAdjust="spacingAndGlyphs"
text-anchor="start" opacity="0">6</text>
<path d="M112575 78069
L112477 78069
L112429 78093
L112404 78117
L112356 78190
L112331 78288
L112331 78483
L112356 78532
L112380 78556
L112429 78580
L112526 78580
L112575 78556
L112599 78532
L112624 78483
L112624 78361
L112599 78312
L112575 78288
L112526 78263
L112429 78263
L112380 78288
L112356 78312
L112331 78361
" />
</g>
<g style="fill:#000000; fill-opacity:0.0; 
stroke:#000000; stroke-width:39.3701; stroke-opacity:1; 
stroke-linecap:round; stroke-linejoin:round;">
</g>
<g style="fill:#000000; fill-opacity:0.0; 
stroke:#000000; stroke-width:59.0551; stroke-opacity:1; 
stroke-linecap:round; stroke-linejoin:round;">
<path d="M3937 23622
L4724 23622
" />
</g>
<g style="fill:#000000; fill-opacity:0.0; 
stroke:#000000; stroke-width:39.3701; stroke-opacity:1; 
stroke-linecap:round; stroke-linejoin:round;">
</g>
<g style="fill:#000000; fill-opacity:0.0; 
stroke:#000000; stroke-width:59.0551; stroke-opacity:1; 
stroke-linecap:round; stroke-linejoin:round;">
<path d="M3937 43307
L4724 43307
" />
</g>
<g style="fill:#000000; fill-opacity:0.0; 
stroke:#000000; stroke-width:39.3701; stroke-opacity:1; 
stroke-linecap:round; stroke-linejoin:round;">
</g>
<g style="fill:#000000; fill-opacity:0.0; 
stroke:#000000; stroke-width:59.0551; stroke-opacity:1; 
stroke-linecap:round; stroke-linejoin:round;">
<path d="M3937 62992
L4724 62992
" />
</g>
<g style="fill:#000000; fill-opacity:0.0; 
stroke:#000000; stroke-width:39.3701; stroke-opacity:1; 
stroke-linecap:round; stroke-linejoin:round;">
</g>
<g style="fill:#000000; fill-opacity:0.0; 
stroke:#000000; stroke-width:59.0551; stroke-opacity:1; 
stroke-linecap:round; stroke-linejoin:round;">
<text x="4330.71" y="14035.4"
textLength="497.75" font-size="682.415" lengthAdjust="spacingAndGlyphs"
text-anchor="middle" opacity="0">A</text>
<path d="M4208 13864
L4452 13864
" />
<path d="M4160 14011
L4330 13499
L4501 14011
" />
</g>
<g style="fill:#000000; fill-opacity:0.0; 
stroke:#000000; stroke-width:39.3701; stroke-opacity:1; 
stroke-linecap:round; stroke-linejoin:round;">
</g>
<g style="fill:#000000; fill-opacity:0.0; 
stroke:#000000; stroke-width:59.0551; stroke-opacity:1; 
stroke-linecap:round; stroke-linejoin:round;">
<text x="4330.71" y="33720.5"
textLength="570.866" font-size="682.415" lengthAdjust="spacingAndGlyphs"
text-anchor="middle" opacity="0">B</text>
<path d="M4367 33428
L4440 33452
L4464 33476
L4489 33525
L4489 33598
L4464 33647
L4440 33671
L4391 33696
L4196 33696
L4196 33184
L4367 33184
L4416 33208
L4440 33233
L4464 33281
L4464 33330
L4440 33379
L4416 33403
L4367 33428
L4196 33428
" />
</g>
<g style="fill:#000000; fill-opacity:0.0; 
stroke:#000000; stroke-width:39.3701; stroke-opacity:1; 
stroke-linecap:round; stroke-linejoin:round;">
</g>
<g style="fill:#000000; fill-opacity:0.0; 
stroke:#000000; stroke-width:59.0551; stroke-opacity:1; 
stroke-linecap:round; stroke-linejoin:round;">
<text x="4330.71" y="53405.5"
textLength="570.866" font-size="682.415" lengthAdjust="spacingAndGlyphs"
text-anchor="middle" opacity="0">C</text>
<path d="M4489 53332
L4464 53356
L4391 53381
L4342 53381
L4269 53356
L4221 53308
L4196 53259
L4172 53161
L4172 53088
L4196 52991
L4221 52942
L4269 52893
L4342 52869
L4391 52869
L4464 52893
L4489 52918
" />
</g>
<g style="fill:#000000; fill-opacity:0.0; 
stroke:#000000; stroke-width:39.3701; stroke-opacity:1; 
stroke-linecap:round; stroke-linejoin:round;">
</g>
<g style="fill:#000000; fill-opacity:0.0; 
stroke:#000000; stroke-width:59.0551; stroke-opacity:1; 
stroke-linecap:round; stroke-linejoin:round;">
<text x="4330.71" y="73090.6"
textLength="570.866" font-size="682.415" lengthAdjust="spacingAndGlyphs"
text-anchor="middle" opacity="0">D</text>
<path d="M4196 73066
L4196 72554
L4318 72554
L4391 72578
L4440 72627
L4464 72676
L4489 72773
L4489 72846
L4464 72944
L4440 72993
L4391 73041
L4318 73066
L4196 73066
" />
</g>
<g style="fill:#000000; fill-opacity:0.0; 
stroke:#000000; stroke-width:39.3701; stroke-opacity:1; 
stroke-linecap:round; stroke-linejoin:round;">
</g>
<g style="fill:#000000; fill-opacity:0.0; 
stroke:#000000; stroke-width:59.0551; stroke-opacity:1; 
stroke-linecap:round; stroke-linejoin:round;">
<path d="M112992 23622
L112205 23622
" />
</g>
<g style="fill:#000000; fill-opacity:0.0; 
stroke:#000000; stroke-width:39.3701; stroke-opacity:1; 
stroke-linecap:round; stroke-linejoin:round;">
</g>
<g style="fill:#000000; fill-opacity:0.0; 
stroke:#000000; stroke-width:59.0551; stroke-opacity:1; 
stroke-linecap:round; stroke-linejoin:round;">
<path d="M112992 43307
L112205 43307
" />
</g>
<g style="fill:#000000; fill-opacity:0.0; 
stroke:#000000; stroke-width:39.3701; stroke-opacity:1; 
stroke-linecap:round; stroke-linejoin:round;">
</g>
<g style="fill:#000000; fill-opacity:0.0; 
stroke:#000000; stroke-width:59.0551; stroke-opacity:1; 
stroke-linecap:round; stroke-linejoin:round;">
<path d="M112992 62992
L112205 62992
" />
</g>
<g style="fill:#000000; fill-opacity:0.0; 
stroke:#000000; stroke-width:39.3701; stroke-opacity:1; 
stroke-linecap:round; stroke-linejoin:round;">
</g>
<g style="fill:#000000; fill-opacity:0.0; 
stroke:#000000; stroke-width:59.0551; stroke-opacity:1; 
stroke-linecap:round; stroke-linejoin:round;">
<text x="112599" y="14035.4"
textLength="497.75" font-size="682.415" lengthAdjust="spacingAndGlyphs"
text-anchor="middle" opacity="0">A</text>
<path d="M112477 13864
L112721 13864
" />
<path d="M112428 14011
L112599 13499
L112769 14011
" />
</g>
<g style="fill:#000000; fill-opacity:0.0; 
stroke:#000000; stroke-width:39.3701; stroke-opacity:1; 
stroke-linecap:round; stroke-linejoin:round;">
</g>
<g style="fill:#000000; fill-opacity:0.0; 
stroke:#000000; stroke-width:59.0551; stroke-opacity:1; 
stroke-linecap:round; stroke-linejoin:round;">
<text x="112599" y="33720.5"
textLength="570.866" font-size="682.415" lengthAdjust="spacingAndGlyphs"
text-anchor="middle" opacity="0">B</text>
<path d="M112635 33428
L112708 33452
L112733 33476
L112757 33525
L112757 33598
L112733 33647
L112708 33671
L112660 33696
L112465 33696
L112465 33184
L112635 33184
L112684 33208
L112708 33233
L112733 33281
L112733 33330
L112708 33379
L112684 33403
L112635 33428
L112465 33428
" />
</g>
<g style="fill:#000000; fill-opacity:0.0; 
stroke:#000000; stroke-width:39.3701; stroke-opacity:1; 
stroke-linecap:round; stroke-linejoin:round;">
</g>
<g style="fill:#000000; fill-opacity:0.0; 
stroke:#000000; stroke-width:59.0551; stroke-opacity:1; 
stroke-linecap:round; stroke-linejoin:round;">
<text x="112599" y="53405.5"
textLength="570.866" font-size="682.415" lengthAdjust="spacingAndGlyphs"
text-anchor="middle" opacity="0">C</text>
<path d="M112757 53332
L112733 53356
L112660 53381
L112611 53381
L112538 53356
L112489 53308
L112465 53259
L112440 53161
L112440 53088
L112465 52991
L112489 52942
L112538 52893
L112611 52869
L112660 52869
L112733 52893
L112757 52918
" />
</g>
<g style="fill:#000000; fill-opacity:0.0; 
stroke:#000000; stroke-width:39.3701; stroke-opacity:1; 
stroke-linecap:round; stroke-linejoin:round;">
</g>
<g style="fill:#000000; fill-opacity:0.0; 
stroke:#000000; stroke-width:59.0551; stroke-opacity:1; 
stroke-linecap:round; stroke-linejoin:round;">
<text x="112599" y="73090.6"
textLength="570.866" font-size="682.415" lengthAdjust="spacingAndGlyphs"
text-anchor="middle" opacity="0">D</text>
<path d="M112465 73066
L112465 72554
L112587 72554
L112660 72578
L112708 72627
L112733 72676
L112757 72773
L112757 72846
L112733 72944
L112708 72993
L112660 73041
L112587 73066
L112465 73066
" />
</g>
<g style="fill:#000000; fill-opacity:0.0; 
stroke:#000000; stroke-width:39.3701; stroke-opacity:1; 
stroke-linecap:round; stroke-linejoin:round;">
</g>
<g style="fill:#000000; fill-opacity:0.0; 
stroke:#000000; stroke-width:59.0551; stroke-opacity:1; 
stroke-linecap:round; stroke-linejoin:round;">
<text x="78741" y="76321.7"
textLength="2758.72" font-size="787.402" lengthAdjust="spacingAndGlyphs"
text-anchor="start" opacity="0">Date: </text>
<path d="M78911 76293
L78911 75703
L79051 75703
L79136 75731
L79192 75787
L79220 75843
L79248 75956
L79248 76040
L79220 76153
L79192 76209
L79136 76265
L79051 76293
L78911 76293
" />
<path d="M79754 76293
L79754 75984
L79726 75928
L79670 75899
L79557 75899
L79501 75928
" />
<path d="M79754 76265
L79698 76293
L79557 76293
L79501 76265
L79473 76209
L79473 76153
L79501 76096
L79557 76068
L79698 76068
L79754 76040
" />
<path d="M79951 75899
L80176 75899
" />
<path d="M80036 75703
L80036 76209
L80064 76265
L80120 76293
L80176 76293
" />
<path d="M80598 76265
L80542 76293
L80429 76293
L80373 76265
L80345 76209
L80345 75984
L80373 75928
L80429 75899
L80542 75899
L80598 75928
L80626 75984
L80626 76040
L80345 76096
" />
<path d="M80879 76237
L80907 76265
L80879 76293
L80851 76265
L80879 76237
L80879 76293
" />
<path d="M80879 75928
L80907 75956
L80879 75984
L80851 75956
L80879 75928
L80879 75984
" />
</g>
<g style="fill:#000000; fill-opacity:0.0; 
stroke:#000000; stroke-width:39.3701; stroke-opacity:1; 
stroke-linecap:round; stroke-linejoin:round;">
</g>
<g style="fill:#000000; fill-opacity:0.0; 
stroke:#000000; stroke-width:59.0551; stroke-opacity:1; 
stroke-linecap:round; stroke-linejoin:round;">
<path d="M69685 76577
L112205 76577
" />
</g>
<g style="fill:#000000; fill-opacity:0.0; 
stroke:#000000; stroke-width:39.3701; stroke-opacity:1; 
stroke-linecap:round; stroke-linejoin:round;">
</g>
<g style="fill:#000000; fill-opacity:0.0; 
stroke:#000000; stroke-width:59.0551; stroke-opacity:1; 
stroke-linecap:round; stroke-linejoin:round;">
<text x="70079.6" y="77424.1"
textLength="14091.7" font-size="787.402" lengthAdjust="spacingAndGlyphs"
text-anchor="start" opacity="0">KiCad E.D.A.  kicad (5.1.10)-1</text>
<path d="M70249 77395
L70249 76805
" />
<path d="M70587 77395
L70334 77058
" />
<path d="M70587 76805
L70249 77142
" />
<path d="M70840 77395
L70840 77002
" />
<path d="M70840 76805
L70812 76833
L70840 76861
L70868 76833
L70840 76805
L70840 76861
" />
<path d="M71458 77339
L71430 77367
L71346 77395
L71290 77395
L71205 77367
L71149 77311
L71121 77255
L71093 77142
L71093 77058
L71121 76946
L71149 76889
L71205 76833
L71290 76805
L71346 76805
L71430 76833
L71458 76861
" />
<path d="M71965 77395
L71965 77086
L71937 77030
L71880 77002
L71768 77002
L71712 77030
" />
<path d="M71965 77367
L71908 77395
L71768 77395
L71712 77367
L71683 77311
L71683 77255
L71712 77199
L71768 77171
L71908 77171
L71965 77142
" />
<path d="M72499 77395
L72499 76805
" />
<path d="M72499 77367
L72443 77395
L72330 77395
L72274 77367
L72246 77339
L72218 77283
L72218 77114
L72246 77058
L72274 77030
L72330 77002
L72443 77002
L72499 77030
" />
<path d="M73230 77086
L73427 77086
" />
<path d="M73511 77395
L73230 77395
L73230 76805
L73511 76805
" />
<path d="M73764 77339
L73793 77367
L73764 77395
L73736 77367
L73764 77339
L73764 77395
" />
<path d="M74046 77395
L74046 76805
L74186 76805
L74271 76833
L74327 76889
L74355 76946
L74383 77058
L74383 77142
L74355 77255
L74327 77311
L74271 77367
L74186 77395
L74046 77395
" />
<path d="M74636 77339
L74664 77367
L74636 77395
L74608 77367
L74636 77339
L74636 77395
" />
<path d="M74889 77227
L75171 77227
" />
<path d="M74833 77395
L75030 76805
L75227 77395
" />
<path d="M75424 77339
L75452 77367
L75424 77395
L75395 77367
L75424 77339
L75424 77395
" />
<path d="M76605 77395
L76605 76805
" />
<path d="M76661 77171
L76830 77395
" />
<path d="M76830 77002
L76605 77227
" />
<path d="M77083 77395
L77083 77002
" />
<path d="M77083 76805
L77055 76833
L77083 76861
L77111 76833
L77083 76805
L77083 76861
" />
<path d="M77617 77367
L77561 77395
L77448 77395
L77392 77367
L77364 77339
L77336 77283
L77336 77114
L77364 77058
L77392 77030
L77448 77002
L77561 77002
L77617 77030
" />
<path d="M78123 77395
L78123 77086
L78095 77030
L78039 77002
L77926 77002
L77870 77030
" />
<path d="M78123 77367
L78067 77395
L77926 77395
L77870 77367
L77842 77311
L77842 77255
L77870 77199
L77926 77171
L78067 77171
L78123 77142
" />
<path d="M78658 77395
L78658 76805
" />
<path d="M78658 77367
L78601 77395
L78489 77395
L78433 77367
L78404 77339
L78376 77283
L78376 77114
L78404 77058
L78433 77030
L78489 77002
L78601 77002
L78658 77030
" />
<path d="M79557 77620
L79529 77592
L79473 77508
L79445 77452
L79417 77367
L79389 77227
L79389 77114
L79417 76974
L79445 76889
L79473 76833
L79529 76749
L79557 76721
" />
<path d="M80064 76805
L79782 76805
L79754 77086
L79782 77058
L79839 77030
L79979 77030
L80036 77058
L80064 77086
L80092 77142
L80092 77283
L80064 77339
L80036 77367
L79979 77395
L79839 77395
L79782 77367
L79754 77339
" />
<path d="M80345 77339
L80373 77367
L80345 77395
L80317 77367
L80345 77339
L80345 77395
" />
<path d="M80935 77395
L80598 77395
" />
<path d="M80767 77395
L80767 76805
L80710 76889
L80654 76946
L80598 76974
" />
<path d="M81188 77339
L81217 77367
L81188 77395
L81160 77367
L81188 77339
L81188 77395
" />
<path d="M81779 77395
L81442 77395
" />
<path d="M81610 77395
L81610 76805
L81554 76889
L81498 76946
L81442 76974
" />
<path d="M82145 76805
L82201 76805
L82257 76833
L82285 76861
L82313 76917
L82341 77030
L82341 77171
L82313 77283
L82285 77339
L82257 77367
L82201 77395
L82145 77395
L82088 77367
L82060 77339
L82032 77283
L82004 77171
L82004 77030
L82032 76917
L82060 76861
L82088 76833
L82145 76805
" />
<path d="M82538 77620
L82566 77592
L82623 77508
L82651 77452
L82679 77367
L82707 77227
L82707 77114
L82679 76974
L82651 76889
L82623 76833
L82566 76749
L82538 76721
" />
<path d="M82988 77171
L83438 77171
" />
<path d="M84029 77395
L83691 77395
" />
<path d="M83860 77395
L83860 76805
L83804 76889
L83748 76946
L83691 76974
" />
</g>
<g style="fill:#000000; fill-opacity:0.0; 
stroke:#000000; stroke-width:39.3701; stroke-opacity:1; 
stroke-linecap:round; stroke-linejoin:round;">
</g>
<g style="fill:#000000; fill-opacity:0.0; 
stroke:#000000; stroke-width:59.0551; stroke-opacity:1; 
stroke-linecap:round; stroke-linejoin:round;">
<path d="M69685 75396
L112205 75396
" />
</g>
<g style="fill:#000000; fill-opacity:0.0; 
stroke:#000000; stroke-width:39.3701; stroke-opacity:1; 
stroke-linecap:round; stroke-linejoin:round;">
</g>
<g style="fill:#000000; fill-opacity:0.0; 
stroke:#000000; stroke-width:118.11; stroke-opacity:1; 
stroke-linecap:round; stroke-linejoin:round;">
<text x="103544" y="76321.7"
textLength="2336.9" font-size="787.402" lengthAdjust="spacingAndGlyphs"
text-anchor="start" opacity="0">Rev: </text>
<path d="M104099 76293
L103902 76012
" />
<path d="M103761 76293
L103761 75703
L103986 75703
L104042 75731
L104070 75759
L104099 75815
L104099 75899
L104070 75956
L104042 75984
L103986 76012
L103761 76012
" />
<path d="M104577 76265
L104520 76293
L104408 76293
L104352 76265
L104323 76209
L104323 75984
L104352 75928
L104408 75899
L104520 75899
L104577 75928
L104605 75984
L104605 76040
L104323 76096
" />
<path d="M104802 75899
L104942 76293
L105083 75899
" />
<path d="M105308 76237
L105336 76265
L105308 76293
L105280 76265
L105308 76237
L105308 76293
" />
<path d="M105308 75928
L105336 75956
L105308 75984
L105280 75956
L105308 75928
L105308 75984
" />
</g>
<g style="fill:#000000; fill-opacity:0.0; 
stroke:#000000; stroke-width:39.3701; stroke-opacity:1; 
stroke-linecap:round; stroke-linejoin:round;">
</g>
<g style="fill:#000000; fill-opacity:0.0; 
stroke:#000000; stroke-width:59.0551; stroke-opacity:1; 
stroke-linecap:round; stroke-linejoin:round;">
<text x="70079.6" y="76321.7"
textLength="3781.21" font-size="787.402" lengthAdjust="spacingAndGlyphs"
text-anchor="start" opacity="0">Size: A4</text>
<path d="M70221 76265
L70305 76293
L70446 76293
L70502 76265
L70530 76237
L70559 76181
L70559 76124
L70530 76068
L70502 76040
L70446 76012
L70334 75984
L70277 75956
L70249 75928
L70221 75871
L70221 75815
L70249 75759
L70277 75731
L70334 75703
L70474 75703
L70559 75731
" />
<path d="M70812 76293
L70812 75899
" />
<path d="M70812 75703
L70784 75731
L70812 75759
L70840 75731
L70812 75703
L70812 75759
" />
<path d="M71037 75899
L71346 75899
L71037 76293
L71346 76293
" />
<path d="M71796 76265
L71740 76293
L71627 76293
L71571 76265
L71543 76209
L71543 75984
L71571 75928
L71627 75899
L71740 75899
L71796 75928
L71824 75984
L71824 76040
L71543 76096
" />
<path d="M72077 76237
L72105 76265
L72077 76293
L72049 76265
L72077 76237
L72077 76293
" />
<path d="M72077 75928
L72105 75956
L72077 75984
L72049 75956
L72077 75928
L72077 75984
" />
<path d="M72780 76124
L73061 76124
" />
<path d="M72724 76293
L72921 75703
L73118 76293
" />
<path d="M73568 75899
L73568 76293
" />
<path d="M73427 75674
L73286 76096
L73652 76096
" />
</g>
<g style="fill:#000000; fill-opacity:0.0; 
stroke:#000000; stroke-width:39.3701; stroke-opacity:1; 
stroke-linecap:round; stroke-linejoin:round;">
</g>
<g style="fill:#000000; fill-opacity:0.0; 
stroke:#000000; stroke-width:59.0551; stroke-opacity:1; 
stroke-linecap:round; stroke-linejoin:round;">
<text x="103544" y="77424.1"
textLength="3349.27" font-size="787.402" lengthAdjust="spacingAndGlyphs"
text-anchor="start" opacity="0">Id: 1/1</text>
<path d="M103714 77395
L103714 76805
" />
<path d="M104248 77395
L104248 76805
" />
<path d="M104248 77367
L104192 77395
L104079 77395
L104023 77367
L103995 77339
L103967 77283
L103967 77114
L103995 77058
L104023 77030
L104079 77002
L104192 77002
L104248 77030
" />
<path d="M104529 77339
L104557 77367
L104529 77395
L104501 77367
L104529 77339
L104529 77395
" />
<path d="M104529 77030
L104557 77058
L104529 77086
L104501 77058
L104529 77030
L104529 77086
" />
<path d="M105570 77395
L105232 77395
" />
<path d="M105401 77395
L105401 76805
L105345 76889
L105289 76946
L105232 76974
" />
<path d="M106245 76777
L105739 77536
" />
<path d="M106751 77395
L106413 77395
" />
<path d="M106582 77395
L106582 76805
L106526 76889
L106470 76946
L106413 76974
" />
</g>
<g style="fill:#000000; fill-opacity:0.0; 
stroke:#000000; stroke-width:39.3701; stroke-opacity:1; 
stroke-linecap:round; stroke-linejoin:round;">
</g>
<g style="fill:#000000; fill-opacity:0.0; 
stroke:#000000; stroke-width:59.0551; stroke-opacity:1; 
stroke-linecap:round; stroke-linejoin:round;">
<path d="M69685 73821
L112205 73821
" />
</g>
<g style="fill:#000000; fill-opacity:0.0; 
stroke:#000000; stroke-width:39.3701; stroke-opacity:1; 
stroke-linecap:round; stroke-linejoin:round;">
</g>
<g style="fill:#000000; fill-opacity:0.0; 
stroke:#000000; stroke-width:157.48; stroke-opacity:1; 
stroke-linecap:round; stroke-linejoin:round;">
<text x="70079.6" y="74924.1"
textLength="3701.14" font-size="1049.87" lengthAdjust="spacingAndGlyphs"
text-anchor="start" opacity="0">Title: </text>
<path d="M70360 74099
L70810 74099
" />
<path d="M70486 74886
L70585 74099
" />
<path d="M70974 74886
L71039 74361
" />
<path d="M71072 74099
L71030 74136
L71063 74174
L71105 74136
L71072 74099
L71063 74174
" />
<path d="M71302 74361
L71602 74361
" />
<path d="M71447 74099
L71363 74774
L71391 74849
L71461 74886
L71536 74886
" />
<path d="M71911 74886
L71841 74849
L71813 74774
L71897 74099
" />
<path d="M72516 74849
L72436 74886
L72286 74886
L72216 74849
L72187 74774
L72225 74474
L72272 74399
L72352 74361
L72501 74361
L72572 74399
L72600 74474
L72591 74549
L72206 74624
" />
<path d="M72895 74811
L72928 74849
L72886 74886
L72853 74849
L72895 74811
L72886 74886
" />
<path d="M72947 74399
L72980 74436
L72937 74474
L72905 74436
L72947 74399
L72937 74474
" />
</g>
<g style="fill:#000000; fill-opacity:0.0; 
stroke:#000000; stroke-width:39.3701; stroke-opacity:1; 
stroke-linecap:round; stroke-linejoin:round;">
</g>
<g style="fill:#000000; fill-opacity:0.0; 
stroke:#000000; stroke-width:59.0551; stroke-opacity:1; 
stroke-linecap:round; stroke-linejoin:round;">
<text x="70079.6" y="73408.3"
textLength="11959.5" font-size="787.402" lengthAdjust="spacingAndGlyphs"
text-anchor="start" opacity="0">File: mcu_board.kicad_pcb</text>
<path d="M70446 73070
L70249 73070
" />
<path d="M70249 73380
L70249 72789
L70530 72789
" />
<path d="M70755 73380
L70755 72986
" />
<path d="M70755 72789
L70727 72817
L70755 72845
L70784 72817
L70755 72789
L70755 72845
" />
<path d="M71121 73380
L71065 73352
L71037 73295
L71037 72789
" />
<path d="M71571 73352
L71515 73380
L71402 73380
L71346 73352
L71318 73295
L71318 73070
L71346 73014
L71402 72986
L71515 72986
L71571 73014
L71599 73070
L71599 73127
L71318 73183
" />
<path d="M71852 73323
L71880 73352
L71852 73380
L71824 73352
L71852 73323
L71852 73380
" />
<path d="M71852 73014
L71880 73042
L71852 73070
L71824 73042
L71852 73014
L71852 73070
" />
<path d="M72583 73380
L72583 72986
" />
<path d="M72583 73042
L72611 73014
L72668 72986
L72752 72986
L72808 73014
L72836 73070
L72836 73380
" />
<path d="M72836 73070
L72865 73014
L72921 72986
L73005 72986
L73061 73014
L73090 73070
L73090 73380
" />
<path d="M73624 73352
L73568 73380
L73455 73380
L73399 73352
L73371 73323
L73343 73267
L73343 73099
L73371 73042
L73399 73014
L73455 72986
L73568 72986
L73624 73014
" />
<path d="M74130 72986
L74130 73380
" />
<path d="M73877 72986
L73877 73295
L73905 73352
L73961 73380
L74046 73380
L74102 73352
L74130 73323
" />
<path d="M74271 73436
L74721 73436
" />
<path d="M74861 73380
L74861 72789
" />
<path d="M74861 73014
L74917 72986
L75030 72986
L75086 73014
L75114 73042
L75142 73099
L75142 73267
L75114 73323
L75086 73352
L75030 73380
L74917 73380
L74861 73352
" />
<path d="M75480 73380
L75424 73352
L75395 73323
L75367 73267
L75367 73099
L75395 73042
L75424 73014
L75480 72986
L75564 72986
L75620 73014
L75649 73042
L75677 73099
L75677 73267
L75649 73323
L75620 73352
L75564 73380
L75480 73380
" />
<path d="M76183 73380
L76183 73070
L76155 73014
L76099 72986
L75986 72986
L75930 73014
" />
<path d="M76183 73352
L76127 73380
L75986 73380
L75930 73352
L75902 73295
L75902 73239
L75930 73183
L75986 73155
L76127 73155
L76183 73127
" />
<path d="M76464 73380
L76464 72986
" />
<path d="M76464 73099
L76492 73042
L76520 73014
L76577 72986
L76633 72986
" />
<path d="M77083 73380
L77083 72789
" />
<path d="M77083 73352
L77027 73380
L76914 73380
L76858 73352
L76830 73323
L76802 73267
L76802 73099
L76830 73042
L76858 73014
L76914 72986
L77027 72986
L77083 73014
" />
<path d="M77364 73323
L77392 73352
L77364 73380
L77336 73352
L77364 73323
L77364 73380
" />
<path d="M77645 73380
L77645 72789
" />
<path d="M77701 73155
L77870 73380
" />
<path d="M77870 72986
L77645 73211
" />
<path d="M78123 73380
L78123 72986
" />
<path d="M78123 72789
L78095 72817
L78123 72845
L78151 72817
L78123 72789
L78123 72845
" />
<path d="M78658 73352
L78601 73380
L78489 73380
L78433 73352
L78404 73323
L78376 73267
L78376 73099
L78404 73042
L78433 73014
L78489 72986
L78601 72986
L78658 73014
" />
<path d="M79164 73380
L79164 73070
L79136 73014
L79079 72986
L78967 72986
L78911 73014
" />
<path d="M79164 73352
L79108 73380
L78967 73380
L78911 73352
L78883 73295
L78883 73239
L78911 73183
L78967 73155
L79108 73155
L79164 73127
" />
<path d="M79698 73380
L79698 72789
" />
<path d="M79698 73352
L79642 73380
L79529 73380
L79473 73352
L79445 73323
L79417 73267
L79417 73099
L79445 73042
L79473 73014
L79529 72986
L79642 72986
L79698 73014
" />
<path d="M79839 73436
L80289 73436
" />
<path d="M80429 72986
L80429 73577
" />
<path d="M80429 73014
L80485 72986
L80598 72986
L80654 73014
L80682 73042
L80710 73099
L80710 73267
L80682 73323
L80654 73352
L80598 73380
L80485 73380
L80429 73352
" />
<path d="M81217 73352
L81160 73380
L81048 73380
L80992 73352
L80964 73323
L80935 73267
L80935 73099
L80964 73042
L80992 73014
L81048 72986
L81160 72986
L81217 73014
" />
<path d="M81470 73380
L81470 72789
" />
<path d="M81470 73014
L81526 72986
L81638 72986
L81695 73014
L81723 73042
L81751 73099
L81751 73267
L81723 73323
L81695 73352
L81638 73380
L81526 73380
L81470 73352
" />
</g>
<g style="fill:#000000; fill-opacity:0.0; 
stroke:#000000; stroke-width:39.3701; stroke-opacity:1; 
stroke-linecap:round; stroke-linejoin:round;">
</g>
<g style="fill:#000000; fill-opacity:0.0; 
stroke:#000000; stroke-width:59.0551; stroke-opacity:1; 
stroke-linecap:round; stroke-linejoin:round;">
<path d="M69685 71459
L112205 71459
" />
</g>
<g style="fill:#000000; fill-opacity:0.0; 
stroke:#000000; stroke-width:39.3701; stroke-opacity:1; 
stroke-linecap:round; stroke-linejoin:round;">
</g>
<g style="fill:#000000; fill-opacity:0.0; 
stroke:#000000; stroke-width:59.0551; stroke-opacity:1; 
stroke-linecap:round; stroke-linejoin:round;">
<text x="70079.6" y="72345.4"
textLength="3236.78" font-size="787.402" lengthAdjust="spacingAndGlyphs"
text-anchor="start" opacity="0">Sheet: </text>
<path d="M70221 72289
L70305 72317
L70446 72317
L70502 72289
L70530 72260
L70559 72204
L70559 72148
L70530 72092
L70502 72064
L70446 72036
L70334 72007
L70277 71979
L70249 71951
L70221 71895
L70221 71839
L70249 71782
L70277 71754
L70334 71726
L70474 71726
L70559 71754
" />
<path d="M70812 72317
L70812 71726
" />
<path d="M71065 72317
L71065 72007
L71037 71951
L70980 71923
L70896 71923
L70840 71951
L70812 71979
" />
<path d="M71571 72289
L71515 72317
L71402 72317
L71346 72289
L71318 72232
L71318 72007
L71346 71951
L71402 71923
L71515 71923
L71571 71951
L71599 72007
L71599 72064
L71318 72120
" />
<path d="M72077 72289
L72021 72317
L71908 72317
L71852 72289
L71824 72232
L71824 72007
L71852 71951
L71908 71923
L72021 71923
L72077 71951
L72105 72007
L72105 72064
L71824 72120
" />
<path d="M72274 71923
L72499 71923
" />
<path d="M72358 71726
L72358 72232
L72386 72289
L72443 72317
L72499 72317
" />
<path d="M72696 72260
L72724 72289
L72696 72317
L72668 72289
L72696 72260
L72696 72317
" />
<path d="M72696 71951
L72724 71979
L72696 72007
L72668 71979
L72696 71951
L72696 72007
" />
</g>
<g style="fill:#000000; fill-opacity:0.0; 
stroke:#000000; stroke-width:39.3701; stroke-opacity:1; 
stroke-linecap:round; stroke-linejoin:round;">
</g>
<g style="fill:#000000; fill-opacity:0.0; 
stroke:#000000; stroke-width:59.0551; stroke-opacity:1; 
stroke-linecap:round; stroke-linejoin:round;">
<path d="M77559 75396
L77559 76577
" />
</g>
<g style="fill:#000000; fill-opacity:0.0; 
stroke:#000000; stroke-width:39.3701; stroke-opacity:1; 
stroke-linecap:round; stroke-linejoin:round;">
</g>
<g style="fill:#000000; fill-opacity:0.0; 
stroke:#000000; stroke-width:59.0551; stroke-opacity:1; 
stroke-linecap:round; stroke-linejoin:round;">
<path d="M102756 75396
L102756 77955
" />
<g >
</g>
<g >
</g>
<g style="fill:#000000; fill-opacity:0.0; 
stroke:#000000; stroke-width:-0.000393701; stroke-opacity:1; 
stroke-linecap:round; stroke-linejoin:round;">
</g>
<g style="fill:#000000; fill-opacity:0.0; 
stroke:#000000; stroke-width:0; stroke-opacity:1; 
stroke-linecap:round; stroke-linejoin:round;">
</g>
<g style="fill:#000000; fill-opacity:1.0; 
stroke:#000000; stroke-width:0; stroke-opacity:1; 
stroke-linecap:round; stroke-linejoin:round;">
<path style="fill:#000000; fill-opacity:1.0; 
stroke:#000000; stroke-width:0; stroke-opacity:1; 
stroke-linecap:round; stroke-linejoin:round;fill-rule:evenodd;"
d="M 85748.9,29212.6
85119,29212.6
85119,29842.5
85748.9,29842.5
Z" /> 
<circle cx="85433.9" cy="30511.8" r="314.961" /> 
</g>
<g style="fill:#000000; fill-opacity:1.0; 
stroke:#000000; stroke-width:39.3701; stroke-opacity:1; 
stroke-linecap:round; stroke-linejoin:round;">
</g>
<g >
</g>
<g >
</g>
<g >
</g>
<g style="fill:#000000; fill-opacity:1.0; 
stroke:#000000; stroke-width:39.3701; stroke-opacity:1; 
stroke-linecap:round; stroke-linejoin:round;">
</g>
<g style="fill:#000000; fill-opacity:1.0; 
stroke:#000000; stroke-width:0; stroke-opacity:1; 
stroke-linecap:round; stroke-linejoin:round;">
<path style="fill:#000000; fill-opacity:1.0; 
stroke:#000000; stroke-width:0; stroke-opacity:1; 
stroke-linecap:round; stroke-linejoin:round;fill-rule:evenodd;"
d="M 85099.3,31555.1
85099.3,32224.4
85768.6,32224.4
85768.6,31555.1
Z" /> 
<circle cx="85433.9" cy="32889.8" r="334.646" /> 
<circle cx="85433.9" cy="33889.8" r="334.646" /> 
<circle cx="85433.9" cy="34889.8" r="334.646" /> 
</g>
<g >
</g>
<g style="fill:#000000; fill-opacity:1.0; 
stroke:#000000; stroke-width:0; stroke-opacity:1; 
stroke-linecap:round; stroke-linejoin:round;">
<path style="fill:#000000; fill-opacity:1.0; 
stroke:#000000; stroke-width:0; stroke-opacity:1; 
stroke-linecap:round; stroke-linejoin:round;fill-rule:evenodd;"
d="M 71516.6,34311
72185.9,34311
72185.9,33641.7
71516.6,33641.7
Z" /> 
<circle cx="72851.3" cy="33976.4" r="334.646" /> 
<circle cx="73851.3" cy="33976.4" r="334.646" /> 
<circle cx="74851.3" cy="33976.4" r="334.646" /> 
<circle cx="75851.3" cy="33976.4" r="334.646" /> 
</g>
<g >
</g>
<g style="fill:#000000; fill-opacity:1.0; 
stroke:#000000; stroke-width:0; stroke-opacity:1; 
stroke-linecap:round; stroke-linejoin:round;">
<path style="fill:#000000; fill-opacity:1.0; 
stroke:#000000; stroke-width:0; stroke-opacity:1; 
stroke-linecap:round; stroke-linejoin:round;fill-rule:evenodd;"
d="M 71516.6,28405.5
72185.9,28405.5
72185.9,27736.2
71516.6,27736.2
Z" /> 
<circle cx="72851.3" cy="28070.9" r="334.646" /> 
<circle cx="73851.3" cy="28070.9" r="334.646" /> 
<circle cx="74851.3" cy="28070.9" r="334.646" /> 
<circle cx="75851.3" cy="28070.9" r="334.646" /> 
</g>
<g >
</g>
<g style="fill:#000000; fill-opacity:1.0; 
stroke:#000000; stroke-width:0; stroke-opacity:1; 
stroke-linecap:round; stroke-linejoin:round;">
<circle cx="77552" cy="36614.2" r="334.646" /> 
<circle cx="78552" cy="36614.2" r="334.646" /> 
<circle cx="79552" cy="36614.2" r="334.646" /> 
<circle cx="80552" cy="36614.2" r="334.646" /> 
<circle cx="81552" cy="36614.2" r="334.646" /> 
<circle cx="82552" cy="36614.2" r="334.646" /> 
<circle cx="83552" cy="36614.2" r="334.646" /> 
<circle cx="84552" cy="36614.2" r="334.646" /> 
<path style="fill:#000000; fill-opacity:1.0; 
stroke:#000000; stroke-width:0; stroke-opacity:1; 
stroke-linecap:round; stroke-linejoin:round;fill-rule:evenodd;"
d="M 85217.4,36948.8
85886.7,36948.8
85886.7,36279.5
85217.4,36279.5
Z" /> 
</g>
<g >
</g>
<g style="fill:#000000; fill-opacity:1.0; 
stroke:#000000; stroke-width:0; stroke-opacity:1; 
stroke-linecap:round; stroke-linejoin:round;">
<path style="fill:#000000; fill-opacity:1.0; 
stroke:#000000; stroke-width:0; stroke-opacity:1; 
stroke-linecap:round; stroke-linejoin:round;fill-rule:evenodd;"
d="M 77894.6,26830.7
77225.3,26830.7
77225.3,27500
77894.6,27500
Z" /> 
<circle cx="78559.9" cy="27165.4" r="334.646" /> 
<circle cx="79559.9" cy="27165.4" r="334.646" /> 
<circle cx="80559.9" cy="27165.4" r="334.646" /> 
<circle cx="81559.9" cy="27165.4" r="334.646" /> 
<circle cx="82559.9" cy="27165.4" r="334.646" /> 
<circle cx="83559.9" cy="27165.4" r="334.646" /> 
<circle cx="84559.9" cy="27165.4" r="334.646" /> 
<circle cx="85559.9" cy="27165.4" r="334.646" /> 
</g>
<g >
</g>
<g >
</g>
<g style="fill:#000000; fill-opacity:1.0; 
stroke:#000000; stroke-width:0; stroke-opacity:1; 
stroke-linecap:round; stroke-linejoin:round;">
<circle cx="79922.1" cy="29133.9" r="324.803" /> 
</g>
<g style="fill:#000000; fill-opacity:1.0; 
stroke:#000000; stroke-width:39.3701; stroke-opacity:1; 
stroke-linecap:round; stroke-linejoin:round;">
</g>
<g style="fill:#000000; fill-opacity:1.0; 
stroke:#000000; stroke-width:0; stroke-opacity:1; 
stroke-linecap:round; stroke-linejoin:round;">
<circle cx="81496.9" cy="34645.7" r="324.803" /> 
</g>
<g style="fill:#000000; fill-opacity:1.0; 
stroke:#000000; stroke-width:39.3701; stroke-opacity:1; 
stroke-linecap:round; stroke-linejoin:round;">
</g>
<g style="fill:#000000; fill-opacity:1.0; 
stroke:#000000; stroke-width:0; stroke-opacity:1; 
stroke-linecap:round; stroke-linejoin:round;">
<circle cx="83465.4" cy="32677.2" r="324.803" /> 
</g>
<g style="fill:#000000; fill-opacity:1.0; 
stroke:#000000; stroke-width:39.3701; stroke-opacity:1; 
stroke-linecap:round; stroke-linejoin:round;">
</g>
<g style="fill:#000000; fill-opacity:1.0; 
stroke:#000000; stroke-width:0; stroke-opacity:1; 
stroke-linecap:round; stroke-linejoin:round;">
<circle cx="75646.5" cy="29866.1" r="324.803" /> 
</g>
<g style="fill:#000000; fill-opacity:1.0; 
stroke:#000000; stroke-width:39.3701; stroke-opacity:1; 
stroke-linecap:round; stroke-linejoin:round;">
</g>
<g style="fill:#000000; fill-opacity:1.0; 
stroke:#000000; stroke-width:0; stroke-opacity:1; 
stroke-linecap:round; stroke-linejoin:round;">
<circle cx="76907.2" cy="27864" r="324.803" /> 
</g>
<g style="fill:#000000; fill-opacity:1.0; 
stroke:#000000; stroke-width:39.3701; stroke-opacity:1; 
stroke-linecap:round; stroke-linejoin:round;">
</g>
<g style="fill:#000000; fill-opacity:1.0; 
stroke:#000000; stroke-width:0; stroke-opacity:1; 
stroke-linecap:round; stroke-linejoin:round;">
<circle cx="84646.5" cy="28182.9" r="324.803" /> 
</g>
<g style="fill:#000000; fill-opacity:1.0; 
stroke:#000000; stroke-width:39.3701; stroke-opacity:1; 
stroke-linecap:round; stroke-linejoin:round;">
</g>
<g style="fill:#000000; fill-opacity:1.0; 
stroke:#000000; stroke-width:0; stroke-opacity:1; 
stroke-linecap:round; stroke-linejoin:round;">
<circle cx="76772.5" cy="29921.3" r="324.803" /> 
</g>
<g style="fill:#000000; fill-opacity:1.0; 
stroke:#000000; stroke-width:39.3701; stroke-opacity:1; 
stroke-linecap:round; stroke-linejoin:round;">
</g>
<g >
</g>
<g style="fill:#000000; fill-opacity:1.0; 
stroke:#000000; stroke-width:39.3701; stroke-opacity:1; 
stroke-linecap:round; stroke-linejoin:round;">
</g>
<g style="fill:#000000; fill-opacity:1.0; 
stroke:#000000; stroke-width:236.22; stroke-opacity:1; 
stroke-linecap:round; stroke-linejoin:round;">
</g>
<g style="fill:#000000; fill-opacity:0.0; 
stroke:#000000; stroke-width:236.22; stroke-opacity:1; 
stroke-linecap:round; stroke-linejoin:round;">
<path d="M78949 27775
L79559 27165
" />
<path d="M78170 27775
L78949 27775
" />
<path d="M77559 27165
L78170 27775
" />
<path d="M75851 35816
L75851 33976
" />
<path d="M77259 37224
L75851 35816
" />
<path d="M79941 37224
L77259 37224
" />
<path d="M80552 36614
L79941 37224
" />
<path d="M72484 28437
L72851 28070
" />
<path d="M72484 33136
L72484 28437
" />
<path d="M72851 33503
L72484 33136
" />
<path d="M72851 33976
L72851 33503
" />
<path d="M80555 28169
L81559 27165
" />
<path d="M77398 28169
L80555 28169
" />
<path d="M74461 27460
L76689 27460
" />
<path d="M73851 28070
L74461 27460
" />
<path d="M85433 30511
L84449 30511
" />
<path d="M79552 35409
L79552 36614
" />
<path d="M84252 30708
L79552 35409
" />
<path d="M84449 30511
L84252 30708
" />
<path d="M85424 30521
L85433 30511
" />
<path d="M76302 30521
L85424 30521
" />
<path d="M75646 29866
L76302 30521
" />
<path d="M77166 27952
L77174 27944
" />
<path d="M77174 27944
L77398 28169
" />
<path d="M76689 27460
L77174 27944
" />
</g>
<g style="fill:#000000; fill-opacity:0.0; 
stroke:#000000; stroke-width:150; stroke-opacity:1; 
stroke-linecap:round; stroke-linejoin:round;">
<path d="M81552 35771
L81552 36614
" />
<path d="M85433 31889
L81552 35771
" />
<path d="M86001 32322
L85433 32889
" />
<path d="M86001 29046
L86001 32322
" />
<path d="M85137 28182
L86001 29046
" />
<path d="M84646 28182
L85137 28182
" />
<path d="M74851 33976
L72835 31960
" />
<path d="M72835 30086
L74851 28070
" />
<path d="M72835 31960
L72835 30086
" />
<path d="M71851 33976
L71851 28070
" />
<path d="M81804 29921
L84559 27165
" />
<path d="M76772 29921
L81804 29921
" />
</g>
<g >
</g>
<g style="fill:#000000; fill-opacity:0.0; 
stroke:#000000; stroke-width:150; stroke-opacity:1; 
stroke-linecap:round; stroke-linejoin:round;">
<g >
</g>
<g style="fill:#000000; fill-opacity:1.0; 
stroke:#000000; stroke-width:100; stroke-opacity:1; 
stroke-linecap:round; stroke-linejoin:round;">
<path style="fill:#000000; fill-opacity:1.0; 
stroke:#000000; stroke-width:100; stroke-opacity:1; 
stroke-linecap:round; stroke-linejoin:round;fill-rule:evenodd;"
d="M 85836.9,26647.2
85932.6,26711.2
86014,26792.7
86078,26888.4
86122.1,26994.8
86144.6,27107.8
86144.6,27222.9
86122.1,27335.9
86078,27442.3
86014,27538
85932.6,27619.5
85836.9,27683.5
85730.5,27727.5
85617.5,27750
85502.3,27750
85389.4,27727.5
85283,27683.5
85187.2,27619.5
85105.8,27538
85059.9,27469.4
85014,27538
84932.6,27619.5
84877.4,27656.4
84918.8,27673.5
85013,27736.4
85093,27816.5
85120.7,27857.9
85121.7,27857.9
85137.6,27856.3
85153.6,27857.9
85153.6,27857.9
85201.3,27862.6
85262.6,27881.2
85319.1,27911.3
85368.6,27952
85378.7,27964.4
86219.6,28805.2
86232,28815.4
86259.2,28848.6
86272.6,28864.9
86302.8,28921.3
86302.8,28921.3
86321.4,28982.6
86325.5,29025.1
86327.6,29046.3
86326.1,29062.3
86326.1,32306.7
86327.6,32322.6
86321.4,32386.3
86302.8,32447.6
86272.6,32504.1
86261.9,32517.1
86232,32553.6
86219.6,32563.7
86007.4,32775.9
86018.6,32832.2
86018.6,32947.3
85996.1,33060.3
85952,33166.7
85888.1,33262.5
85806.6,33343.9
85738,33389.8
85806.6,33435.6
85888.1,33517.1
85952,33612.8
85996.1,33719.2
86018.6,33832.2
86018.6,33947.3
85996.1,34060.3
85952,34166.7
85888.1,34262.5
85806.6,34343.9
85738,34389.8
85806.6,34435.6
85888.1,34517.1
85952,34612.8
85996.1,34719.2
86018.6,34832.2
86018.6,34947.3
85996.1,35060.3
85952,35166.7
85888.1,35262.5
85806.6,35343.9
85710.9,35407.9
85604.5,35451.9
85491.5,35474.4
85376.4,35474.4
85263.4,35451.9
85157,35407.9
85061.2,35343.9
84979.8,35262.5
84915.8,35166.7
84871.8,35060.3
84849.3,34947.3
84849.3,34832.2
84871.8,34719.2
84915.8,34612.8
84979.8,34517.1
85061.2,34435.6
85129.9,34389.8
85061.2,34343.9
84979.8,34262.5
84915.8,34166.7
84871.8,34060.3
84849.3,33947.3
84849.3,33832.2
84871.8,33719.2
84915.8,33612.8
84979.8,33517.1
85061.2,33435.6
85129.9,33389.8
85061.2,33343.9
84979.8,33262.5
84915.8,33166.7
84871.8,33060.3
84849.3,32947.3
84849.3,32934
81877,35906.3
81877,36128.2
81924.7,36160
82006.2,36241.5
82052,36310.1
82097.9,36241.5
82179.4,36160
82275.1,36096.1
82381.5,36052
82494.5,36029.5
82609.6,36029.5
82722.6,36052
82829,36096.1
82924.7,36160
83006.2,36241.5
83052,36310.1
83097.9,36241.5
83179.4,36160
83275.1,36096.1
83381.5,36052
83494.5,36029.5
83609.6,36029.5
83722.6,36052
83829,36096.1
83924.7,36160
84006.2,36241.5
84054.1,36313.2
84081.5,36267.2
84158.2,36182.1
84250.1,36113.5
84353.6,36064.2
84411.5,36046.7
84502,36094.4
84502,36564.2
84494.2,36564.2
84494.2,36664.2
84502,36664.2
84502,37133.9
84411.5,37181.7
84353.6,37164.1
84250.1,37114.8
84158.2,37046.3
84081.5,36961.2
84054.1,36915.1
84006.2,36986.9
83924.7,37068.3
83829,37132.3
83722.6,37176.4
83609.6,37198.8
83494.5,37198.8
83381.5,37176.4
83275.1,37132.3
83179.4,37068.3
83097.9,36986.9
83052,36918.2
83006.2,36986.9
82924.7,37068.3
82829,37132.3
82722.6,37176.4
82609.6,37198.8
82494.5,37198.8
82381.5,37176.4
82275.1,37132.3
82179.4,37068.3
82097.9,36986.9
82052,36918.2
82006.2,36986.9
81924.7,37068.3
81829,37132.3
81722.6,37176.4
81609.6,37198.8
81494.5,37198.8
81381.5,37176.4
81275.1,37132.3
81179.4,37068.3
81097.9,36986.9
81050,36915.1
81022.6,36961.2
80945.9,37046.3
80854,37114.8
80750.5,37164.1
80692.6,37181.7
80602,37133.9
80602,36664.2
80609.9,36664.2
80609.9,36564.2
80602,36564.2
80602,36094.4
80692.6,36046.7
80750.5,36064.2
80854,36113.5
80945.9,36182.1
81022.6,36267.2
81050,36313.2
81097.9,36241.5
81179.4,36160
81227,36128.2
81227,35787.6
81225.5,35771.7
81230.9,35717
81231.7,35707.9
81250.3,35646.7
81280.5,35590.2
81280.5,35590.2
81310.9,35553.1
81310.9,35553.1
81321.1,35540.7
81333.5,35530.6
84848.1,32016
84848.1,31555.1
84852.9,31506.1
84867.2,31459
84890.4,31415.6
84921.7,31377.5
84959.7,31346.2
85003.2,31323
85050.3,31308.7
85099.3,31303.9
85676.1,31303.9
85676.1,31023
85598.7,31055.1
85489.6,31076.8
85378.3,31076.8
85269.1,31055.1
85166.3,31012.5
85073.8,30950.6
85012.9,30889.8
84592.3,30889.8
84525.9,30956.2
84525.9,30956.2
79920.2,35561.9
79920.2,36157
79924.7,36160
80006.2,36241.5
80054.1,36313.2
80081.5,36267.2
80158.2,36182.1
80250.1,36113.5
80353.6,36064.2
80411.5,36046.7
80502,36094.4
80502,36564.2
80494.2,36564.2
80494.2,36664.2
80502,36664.2
80502,37133.9
80411.5,37181.7
80353.6,37164.1
80250.1,37114.8
80158.2,37046.3
80081.5,36961.2
80054.1,36915.1
80006.2,36986.9
79924.7,37068.3
79829,37132.3
79722.6,37176.4
79609.6,37198.8
79494.5,37198.8
79381.5,37176.4
79275.1,37132.3
79179.4,37068.3
79097.9,36986.9
79052,36918.2
79006.2,36986.9
78924.7,37068.3
78829,37132.3
78722.6,37176.4
78609.6,37198.8
78494.5,37198.8
78381.5,37176.4
78275.1,37132.3
78179.4,37068.3
78097.9,36986.9
78052,36918.2
78006.2,36986.9
77924.7,37068.3
77829,37132.3
77722.6,37176.4
77609.6,37198.8
77494.5,37198.8
77381.5,37176.4
77275.1,37132.3
77179.4,37068.3
77097.9,36986.9
77033.9,36891.1
76989.9,36784.7
76967.4,36671.8
76967.4,36556.6
76989.9,36443.6
77033.9,36337.2
77097.9,36241.5
77179.4,36160
77275.1,36096.1
77381.5,36052
77494.5,36029.5
77609.6,36029.5
77722.6,36052
77829,36096.1
77924.7,36160
78006.2,36241.5
78052,36310.1
78097.9,36241.5
78179.4,36160
78275.1,36096.1
78381.5,36052
78494.5,36029.5
78609.6,36029.5
78722.6,36052
78829,36096.1
78924.7,36160
79006.2,36241.5
79052,36310.1
79097.9,36241.5
79179.4,36160
79183.9,36157
79183.9,35427.5
79182.2,35409.4
79189.3,35337.3
79210.3,35267.9
79210.3,35267.9
79244.5,35203.9
79290.5,35147.9
79304.5,35136.4
80324,34116.9
76418.8,34116.9
76380.5,34224.9
76321.8,34323.4
76245.1,34408.5
76153.2,34477
76049.7,34526.3
75991.8,34543.9
75901.3,34496.1
75901.3,34026.4
76371.3,34026.4
76418.8,34116.9
80324,34116.9
80605,33835.9
76418.8,33835.9
76371.3,33926.4
75901.3,33926.4
75901.3,33456.6
75991.8,33408.9
76049.7,33426.4
76153.2,33475.7
76245.1,33544.3
76321.8,33629.4
76380.5,33727.9
76418.8,33835.9
80605,33835.9
83551.1,30889.8
76320.1,30889.8
76302,30891.5
76284,30889.8
76229.9,30884.4
76160.5,30863.4
76096.5,30829.2
76040.5,30783.2
76029,30769.2
75700.8,30440.9
75589.9,30440.9
75478.9,30418.9
75374.3,30375.5
75280.1,30312.6
75200.1,30232.6
75137.2,30138.4
75093.8,30033.8
75071.7,29922.8
75071.7,29809.5
75093.8,29698.5
75137.2,29593.9
75200.1,29499.7
75280.1,29419.7
75374.3,29356.8
75478.9,29313.4
75589.9,29291.3
75703.1,29291.3
75814.2,29313.4
75918.8,29356.8
76013,29419.7
76093,29499.7
76155.9,29593.9
76199.2,29698.5
76215,29777.7
76219.8,29753.6
76263.1,29649
76326,29554.8
76406.1,29474.8
76500.2,29411.9
76604.9,29368.5
76715.9,29346.5
76829.1,29346.5
76940.2,29368.5
77044.8,29411.9
77138.9,29474.8
77219,29554.8
77246.7,29596.3
81669.4,29596.3
83515.7,27750
83502.3,27750
83389.4,27727.5
83283,27683.5
83187.2,27619.5
83105.8,27538
83059.9,27469.4
83014,27538
82932.6,27619.5
82836.9,27683.5
82730.5,27727.5
82617.5,27750
82502.3,27750
82389.4,27727.5
82283,27683.5
82187.2,27619.5
82105.8,27538
82059.9,27469.4
82014,27538
81932.6,27619.5
81836.9,27683.5
81730.5,27727.5
81617.5,27750
81502.3,27750
81496.9,27748.9
80829.1,28416.8
80817.5,28430.8
80761.5,28476.8
80697.5,28511
80651.5,28525
80628.1,28532.1
80556,28539.2
80537.9,28537.4
77416.6,28537.4
77398.5,28539.2
77380.4,28537.4
77326.3,28532.1
77257,28511
77193,28476.8
77137,28430.8
77125.4,28416.8
77110.6,28401.9
77074.9,28416.7
76963.8,28438.8
76850.6,28438.8
76739.6,28416.7
76634.9,28373.4
76540.8,28310.5
76460.7,28230.4
76397.8,28136.3
76391.5,28120.9
76371.3,28120.9
76418.8,28211.4
76380.5,28319.4
76321.8,28417.9
76245.1,28503
76153.2,28571.5
76049.7,28620.8
75991.8,28638.4
75901.3,28590.6
75901.3,28120.9
75909.1,28120.9
75909.1,28020.9
75901.3,28020.9
75901.3,28013
75801.3,28013
75801.3,28020.9
75793.4,28020.9
75793.4,28120.9
75801.3,28120.9
75801.3,28590.6
75710.8,28638.4
75652.8,28620.8
75549.3,28571.5
75457.5,28503
75380.7,28417.9
75353.3,28371.8
75305.4,28443.6
75223.9,28525
75128.2,28589
75021.8,28633
74908.8,28655.5
74793.7,28655.5
74737.4,28644.3
73160.5,30221.2
73160.5,31826
74737.4,33402.9
74793.7,33391.7
74908.8,33391.7
75021.8,33414.2
75128.2,33458.3
75223.9,33522.3
75305.4,33603.7
75353.3,33675.4
75380.7,33629.4
75457.5,33544.3
75549.3,33475.7
75652.8,33426.4
75710.8,33408.9
75801.3,33456.6
75801.3,33926.4
75793.4,33926.4
75793.4,34026.4
75801.3,34026.4
75801.3,34496.1
75710.8,34543.9
75652.8,34526.3
75549.3,34477
75457.5,34408.5
75380.7,34323.4
75353.3,34277.3
75305.4,34349.1
75223.9,34430.5
75128.2,34494.5
75021.8,34538.6
74908.8,34561
74793.7,34561
74680.7,34538.6
74574.3,34494.5
74478.6,34430.5
74397.1,34349.1
74351.3,34280.4
74305.4,34349.1
74223.9,34430.5
74128.2,34494.5
74021.8,34538.6
73908.8,34561
73793.7,34561
73680.7,34538.6
73574.3,34494.5
73478.6,34430.5
73397.1,34349.1
73349.2,34277.3
73321.8,34323.4
73245.1,34408.5
73153.2,34477
73049.7,34526.3
72991.8,34543.9
72901.3,34496.1
72901.3,34026.4
72909.1,34026.4
72909.1,33926.4
72901.3,33926.4
72901.3,33456.6
72991.8,33408.9
73049.7,33426.4
73153.2,33475.7
73245.1,33544.3
73321.8,33629.4
73349.2,33675.4
73397.1,33603.7
73478.6,33522.3
73574.3,33458.3
73680.7,33414.2
73793.7,33391.7
73807,33391.7
72617,32201.7
72604.6,32191.6
72582.1,32164.2
72564,32142.1
72545.9,32108.3
72533.8,32085.6
72515.2,32024.3
72510.5,31976.6
72510.5,31976.6
72508.9,31960.6
72510.5,31944.7
72510.5,30102.6
72508.9,30086.6
72510.5,30070.7
72510.5,30070.6
72515.2,30022.9
72533.8,29961.6
72564,29905.2
72564,29905.2
72594.4,29868.1
72604.6,29855.7
72617,29845.5
73807,28655.5
73793.7,28655.5
73680.7,28633
73574.3,28589
73478.6,28525
73397.1,28443.6
73349.2,28371.8
73321.8,28417.9
73245.1,28503
73153.2,28571.5
73049.7,28620.8
72991.8,28638.4
72901.3,28590.6
72901.3,28120.9
72909.1,28120.9
72909.1,28020.9
72901.3,28020.9
72901.3,27551.1
72801.3,27551.1
72801.3,28020.9
72793.4,28020.9
72793.4,28120.9
72801.3,28120.9
72801.3,28590.6
72710.8,28638.4
72652.8,28620.8
72549.3,28571.5
72457.5,28503
72427.6,28469.9
72418,28501.6
72394.8,28545.1
72363.5,28583.1
72325.5,28614.4
72282,28637.6
72234.9,28651.9
72185.9,28656.7
72176.3,28656.7
72176.3,33390.5
72185.9,33390.5
72234.9,33395.3
72282,33409.6
72325.5,33432.9
72363.5,33464.1
72394.8,33502.2
72418,33545.6
72427.6,33577.3
72457.5,33544.3
72549.3,33475.7
72652.8,33426.4
72710.8,33408.9
72801.3,33456.6
72801.3,33926.4
72793.4,33926.4
72793.4,34026.4
72801.3,34026.4
72801.3,34496.1
72710.8,34543.9
72652.8,34526.3
72549.3,34477
72457.5,34408.5
72427.6,34375.4
72418,34407.2
72394.8,34450.6
72363.5,34488.7
72325.5,34519.9
72282,34543.1
72234.9,34557.4
72185.9,34562.2
71516.6,34562.2
71467.6,34557.4
71420.5,34543.1
71377,34519.9
71339,34488.7
71307.7,34450.6
71284.5,34407.2
71270.2,34360
71265.4,34311
71265.4,33641.7
71270.2,33592.7
71284.5,33545.6
71307.7,33502.2
71339,33464.1
71377,33432.9
71420.5,33409.6
71467.6,33395.3
71516.6,33390.5
71526.3,33390.5
71526.3,28656.7
71516.6,28656.7
71467.6,28651.9
71420.5,28637.6
71377,28614.4
71339,28583.1
71307.7,28545.1
71284.5,28501.6
71270.2,28454.5
71265.4,28405.5
71265.4,27736.2
71270.2,27687.2
71284.5,27640.1
71307.7,27596.7
71339,27558.6
71377,27527.3
71420.5,27504.1
71467.6,27489.8
71516.6,27485
72185.9,27485
72234.9,27489.8
72282,27504.1
72325.5,27527.3
72363.5,27558.6
72394.8,27596.7
72418,27640.1
72427.6,27671.8
72457.5,27638.7
72549.3,27570.2
72652.8,27520.9
72710.8,27503.4
72801.3,27551.1
72901.3,27551.1
72991.8,27503.4
73049.7,27520.9
73153.2,27570.2
73245.1,27638.7
73321.8,27723.9
73349.2,27769.9
73397.1,27698.2
73478.6,27616.7
73574.3,27552.8
73680.7,27508.7
73793.7,27486.2
73908.8,27486.2
73914.2,27487.3
74188.4,27213.1
74199.9,27199.1
74256,27153.1
74319.9,27118.9
74389.3,27097.8
74443.4,27092.5
74461.5,27090.7
74479.6,27092.5
76671.8,27092.5
76689.8,27090.7
76762,27097.8
76831.4,27118.9
76853.7,27130.8
76895.3,27153.1
76951.4,27199.1
76962.9,27213.1
77001.5,27251.7
77037.8,27215.4
77509.9,27215.4
77509.9,27687.5
77473.6,27723.8
77551,27801.2
80403.5,27801.2
80462.6,27742.1
80389.4,27727.5
80283,27683.5
80187.2,27619.5
80105.8,27538
80057.9,27466.3
80030.5,27512.3
79953.7,27597.5
79861.9,27666
79758.4,27715.3
79700.4,27732.9
79609.9,27685.1
79609.9,27215.4
79617.8,27215.4
79617.8,27115.4
79609.9,27115.4
79609.9,27107.5
79509.9,27107.5
79509.9,27115.4
79502,27115.4
79502,27215.4
79509.9,27215.4
79509.9,27685.1
79419.4,27732.9
79361.5,27715.3
79258,27666
79166.1,27597.5
79089.4,27512.3
79062,27466.3
79014,27538
78932.6,27619.5
78836.9,27683.5
78730.5,27727.5
78617.5,27750
78502.3,27750
78389.4,27727.5
78283,27683.5
78187.2,27619.5
78135.3,27567.6
78126.7,27596.1
78103.4,27639.6
78072.2,27677.6
78034.1,27708.9
77990.7,27732.1
77943.6,27746.4
77894.6,27751.2
77672.4,27750
77609.9,27687.5
77609.9,27215.4
77617.8,27215.4
77617.8,27115.4
77609.9,27115.4
77609.9,27107.5
77509.9,27107.5
77509.9,27115.4
77037.8,27115.4
76975.3,27052.9
76974.1,26830.7
76978.9,26781.7
76993.2,26734.6
77016.4,26691.1
77047.6,26653.1
77066.3,26637.8
71126.9,26637.8
71126.9,37929.1
86748.9,37929.1
86748.9,36279.5
86137.9,36279.5
86137.9,36948.8
86133.1,36997.8
86118.8,37045
86095.6,37088.4
86064.3,37126.5
86026.3,37157.7
85982.8,37180.9
85935.7,37195.2
85886.7,37200
85217.4,37200
85168.4,37195.2
85121.3,37180.9
85077.8,37157.7
85039.8,37126.5
85008.5,37088.4
84985.3,37045
84975.7,37013.2
84945.9,37046.3
84854,37114.8
84750.5,37164.1
84692.6,37181.7
84602,37133.9
84602,36664.2
84609.9,36664.2
84609.9,36564.2
84602,36564.2
84602,36094.4
84692.6,36046.7
84750.5,36064.2
84854,36113.5
84945.9,36182.1
84975.7,36215.1
84985.3,36183.4
85008.5,36140
85039.8,36101.9
85077.8,36070.7
85121.3,36047.4
85168.4,36033.1
85217.4,36028.3
85886.7,36028.3
85935.7,36033.1
85982.8,36047.4
86026.3,36070.7
86064.3,36101.9
86095.6,36140
86118.8,36183.4
86133.1,36230.5
86137.9,36279.5
86748.9,36279.5
86748.9,26637.8
85814,26637.8
Z" /> 
<path style="fill:#000000; fill-opacity:1.0; 
stroke:#000000; stroke-width:100; stroke-opacity:1; 
stroke-linecap:round; stroke-linejoin:round;fill-rule:evenodd;"
d="M 82045.1,30139.8
82034.9,30152.2
82033.3,30153.5
84362.6,30153.5
84377.5,30149
84431.6,30143.7
84449.7,30141.9
84467.8,30143.7
85003.1,30143.7
85060.7,30086.1
85022.8,30074.6
84979.4,30051.4
84941.3,30020.2
84910.1,29982.1
84886.9,29938.7
84872.6,29891.5
84867.8,29842.5
84869,29640.1
84931.5,29577.6
85383.9,29577.6
85383.9,29585.4
85483.9,29585.4
85483.9,29577.6
85491.8,29577.6
85491.8,29477.6
85483.9,29477.6
85483.9,29025.1
85383.9,29025.1
85383.9,29477.6
84931.5,29477.6
84869,29415.1
84867.8,29212.6
84872.6,29163.6
84886.9,29116.5
84910.1,29073
84941.3,29035
84979.4,29003.7
85022.8,28980.5
85070,28966.2
85119,28961.4
85321.4,28962.6
85383.9,29025.1
85483.9,29025.1
85502.1,29006.9
85068.7,28573.6
85013,28629.4
84918.8,28692.3
84814.2,28735.6
84703.1,28757.7
84589.9,28757.7
84478.9,28735.6
84374.3,28692.3
84280.1,28629.4
84200.1,28549.3
84137.2,28455.1
84093.8,28350.5
84071.7,28239.5
84071.7,28126.3
84075,28109.9
Z" /> 
</g>
</g>
<g style="fill:#000000; fill-opacity:1.0; 
stroke:#000000; stroke-width:100; stroke-opacity:1; 
stroke-linecap:round; stroke-linejoin:round;">
<g >
<path style="fill:#000000; fill-opacity:1.0; 
stroke:#000000; stroke-width:100; stroke-opacity:1; 
stroke-linecap:round; stroke-linejoin:round;fill-rule:evenodd;"
d="M 85836.9,26647.2
85932.6,26711.2
86014,26792.7
86078,26888.4
86122.1,26994.8
86144.6,27107.8
86144.6,27222.9
86122.1,27335.9
86078,27442.3
86014,27538
85932.6,27619.5
85836.9,27683.5
85730.5,27727.5
85617.5,27750
85502.3,27750
85389.4,27727.5
85283,27683.5
85187.2,27619.5
85105.8,27538
85059.9,27469.4
85014,27538
84932.6,27619.5
84877.4,27656.4
84918.8,27673.5
85013,27736.4
85093,27816.5
85120.7,27857.9
85121.7,27857.9
85137.6,27856.3
85153.6,27857.9
85153.6,27857.9
85201.3,27862.6
85262.6,27881.2
85319.1,27911.3
85368.6,27952
85378.7,27964.4
86219.6,28805.2
86232,28815.4
86259.2,28848.6
86272.6,28864.9
86302.8,28921.3
86302.8,28921.3
86321.4,28982.6
86326.1,29030.3
86327.6,29046.3
86326.1,29062.3
86326.1,32306.7
86327.6,32322.6
86321.4,32386.3
86302.8,32447.6
86272.6,32504.1
86261.9,32517.1
86232,32553.6
86219.6,32563.7
86007.4,32775.9
86018.6,32832.2
86018.6,32947.3
85996.1,33060.3
85952,33166.7
85888.1,33262.5
85806.6,33343.9
85738,33389.8
85806.6,33435.6
85888.1,33517.1
85952,33612.8
85996.1,33719.2
86018.6,33832.2
86018.6,33947.3
85996.1,34060.3
85952,34166.7
85888.1,34262.5
85806.6,34343.9
85738,34389.8
85806.6,34435.6
85888.1,34517.1
85952,34612.8
85996.1,34719.2
86018.6,34832.2
86018.6,34947.3
85996.1,35060.3
85952,35166.7
85888.1,35262.5
85806.6,35343.9
85710.9,35407.9
85604.5,35451.9
85491.5,35474.4
85376.4,35474.4
85263.4,35451.9
85157,35407.9
85061.2,35343.9
84979.8,35262.5
84915.8,35166.7
84871.8,35060.3
84849.3,34947.3
84849.3,34832.2
84871.8,34719.2
84915.8,34612.8
84979.8,34517.1
85061.2,34435.6
85129.9,34389.8
85061.2,34343.9
84979.8,34262.5
84915.8,34166.7
84871.8,34060.3
84849.3,33947.3
84849.3,33832.2
84871.8,33719.2
84915.8,33612.8
84979.8,33517.1
85061.2,33435.6
85129.9,33389.8
85061.2,33343.9
84979.8,33262.5
84915.8,33166.7
84871.8,33060.3
84849.3,32947.3
84849.3,32934
81877,35906.3
81877,36128.2
81924.7,36160
82006.2,36241.5
82052,36310.1
82097.9,36241.5
82179.4,36160
82275.1,36096.1
82381.5,36052
82494.5,36029.5
82609.6,36029.5
82722.6,36052
82829,36096.1
82924.7,36160
83006.2,36241.5
83052,36310.1
83097.9,36241.5
83179.4,36160
83275.1,36096.1
83381.5,36052
83494.5,36029.5
83609.6,36029.5
83722.6,36052
83829,36096.1
83924.7,36160
84006.2,36241.5
84052,36310.1
84097.9,36241.5
84179.4,36160
84275.1,36096.1
84381.5,36052
84494.5,36029.5
84609.6,36029.5
84722.6,36052
84829,36096.1
84924.7,36160
84976.6,36212
84985.3,36183.4
85008.5,36140
85039.8,36101.9
85077.8,36070.7
85121.3,36047.4
85168.4,36033.1
85217.4,36028.3
85886.7,36028.3
85935.7,36033.1
85982.8,36047.4
86026.3,36070.7
86064.3,36101.9
86095.6,36140
86118.8,36183.4
86133.1,36230.5
86137.9,36279.5
86137.9,36948.8
86133.1,36997.8
86118.8,37045
86095.6,37088.4
86064.3,37126.5
86026.3,37157.7
85982.8,37180.9
85935.7,37195.2
85886.7,37200
85217.4,37200
85168.4,37195.2
85121.3,37180.9
85077.8,37157.7
85039.8,37126.5
85008.5,37088.4
84985.3,37045
84976.6,37016.4
84924.7,37068.3
84829,37132.3
84722.6,37176.4
84609.6,37198.8
84494.5,37198.8
84381.5,37176.4
84275.1,37132.3
84179.4,37068.3
84097.9,36986.9
84052,36918.2
84006.2,36986.9
83924.7,37068.3
83829,37132.3
83722.6,37176.4
83609.6,37198.8
83494.5,37198.8
83381.5,37176.4
83275.1,37132.3
83179.4,37068.3
83097.9,36986.9
83052,36918.2
83006.2,36986.9
82924.7,37068.3
82829,37132.3
82722.6,37176.4
82609.6,37198.8
82494.5,37198.8
82381.5,37176.4
82275.1,37132.3
82179.4,37068.3
82097.9,36986.9
82052,36918.2
82006.2,36986.9
81924.7,37068.3
81829,37132.3
81722.6,37176.4
81609.6,37198.8
81494.5,37198.8
81381.5,37176.4
81275.1,37132.3
81179.4,37068.3
81097.9,36986.9
81052,36918.2
81006.2,36986.9
80924.7,37068.3
80829,37132.3
80722.6,37176.4
80609.6,37198.8
80494.5,37198.8
80489.1,37197.7
80214.9,37471.9
80203.4,37486
80147.3,37532
80083.4,37566.1
80035,37580.8
80014,37587.2
80006.7,37587.9
79959.9,37592.5
79959.9,37592.5
79941.8,37594.3
79923.7,37592.5
77277.2,37592.5
77259.1,37594.3
77241.1,37592.5
77187,37587.2
77117.6,37566.1
77053.6,37532
76997.6,37486
76986.1,37471.9
75603.8,36089.6
75589.7,36078.1
75543.7,36022
75509.5,35958.1
75488.5,35888.7
75483.1,35834.6
75483.1,35834.6
75481.4,35816.5
75483.1,35798.5
75483.1,34433.6
75478.6,34430.5
75397.1,34349.1
75351.3,34280.4
75305.4,34349.1
75223.9,34430.5
75128.2,34494.5
75021.8,34538.6
74908.8,34561
74793.7,34561
74680.7,34538.6
74574.3,34494.5
74478.6,34430.5
74397.1,34349.1
74351.3,34280.4
74305.4,34349.1
74223.9,34430.5
74128.2,34494.5
74021.8,34538.6
73908.8,34561
73793.7,34561
73680.7,34538.6
73574.3,34494.5
73478.6,34430.5
73397.1,34349.1
73351.3,34280.4
73305.4,34349.1
73223.9,34430.5
73128.2,34494.5
73021.8,34538.6
72908.8,34561
72793.7,34561
72680.7,34538.6
72574.3,34494.5
72478.6,34430.5
72426.7,34378.6
72418,34407.2
72394.8,34450.6
72363.5,34488.7
72325.5,34519.9
72282,34543.1
72234.9,34557.4
72185.9,34562.2
71516.6,34562.2
71467.6,34557.4
71420.5,34543.1
71377,34519.9
71339,34488.7
71307.7,34450.6
71284.5,34407.2
71270.2,34360
71265.4,34311
71265.4,33641.7
71270.2,33592.7
71284.5,33545.6
71307.7,33502.2
71339,33464.1
71377,33432.9
71420.5,33409.6
71467.6,33395.3
71516.6,33390.5
71526.3,33390.5
71526.3,28656.7
71516.6,28656.7
71467.6,28651.9
71420.5,28637.6
71377,28614.4
71339,28583.1
71307.7,28545.1
71284.5,28501.6
71270.2,28454.5
71265.4,28405.5
71265.4,27736.2
71270.2,27687.2
71284.5,27640.1
71307.7,27596.7
71339,27558.6
71377,27527.3
71420.5,27504.1
71467.6,27489.8
71516.6,27485
72185.9,27485
72234.9,27489.8
72282,27504.1
72325.5,27527.3
72363.5,27558.6
72394.8,27596.7
72418,27640.1
72426.7,27668.7
72478.6,27616.7
72574.3,27552.8
72680.7,27508.7
72793.7,27486.2
72908.8,27486.2
73021.8,27508.7
73128.2,27552.8
73223.9,27616.7
73305.4,27698.2
73351.3,27766.8
73397.1,27698.2
73478.6,27616.7
73574.3,27552.8
73680.7,27508.7
73793.7,27486.2
73908.8,27486.2
73914.2,27487.3
74188.4,27213.1
74199.9,27199.1
74256,27153.1
74319.9,27118.9
74389.3,27097.8
74443.4,27092.5
74461.5,27090.7
74479.6,27092.5
76671.8,27092.5
76689.8,27090.7
76762,27097.8
76831.4,27118.9
76853.7,27130.8
76895.3,27153.1
76951.4,27199.1
76962.9,27213.1
76974.1,27224.3
76974.1,26830.7
76978.9,26781.7
76993.2,26734.6
77016.4,26691.1
77047.6,26653.1
77066.3,26637.8
71126.9,26637.8
71126.9,37929.1
86748.9,37929.1
86748.9,26637.8
85814,26637.8
Z" /> 
<path style="fill:#000000; fill-opacity:1.0; 
stroke:#000000; stroke-width:100; stroke-opacity:1; 
stroke-linecap:round; stroke-linejoin:round;fill-rule:evenodd;"
d="M 82014,27538
81932.6,27619.5
81836.9,27683.5
81730.5,27727.5
81617.5,27750
81502.3,27750
81496.9,27748.9
80829.1,28416.8
80817.5,28430.8
80761.5,28476.8
80697.5,28511
80651.5,28525
80628.1,28532.1
80556,28539.2
80537.9,28537.4
77416.6,28537.4
77398.5,28539.2
77380.4,28537.4
77326.3,28532.1
77257,28511
77193,28476.8
77137,28430.8
77125.4,28416.8
77110.6,28401.9
77074.9,28416.7
76963.8,28438.8
76850.6,28438.8
76739.6,28416.7
76634.9,28373.4
76540.8,28310.5
76460.7,28230.4
76426,28178.4
76413.4,28241.4
76369.4,28347.8
76305.4,28443.6
76223.9,28525
76128.2,28589
76021.8,28633
75908.8,28655.5
75793.7,28655.5
75680.7,28633
75574.3,28589
75478.6,28525
75397.1,28443.6
75351.3,28374.9
75305.4,28443.6
75223.9,28525
75128.2,28589
75021.8,28633
74908.8,28655.5
74793.7,28655.5
74737.4,28644.3
73160.5,30221.2
73160.5,31826
74737.4,33402.9
74793.7,33391.7
74908.8,33391.7
75021.8,33414.2
75128.2,33458.3
75223.9,33522.3
75305.4,33603.7
75351.3,33672.3
75397.1,33603.7
75478.6,33522.3
75574.3,33458.3
75680.7,33414.2
75793.7,33391.7
75908.8,33391.7
76021.8,33414.2
76128.2,33458.3
76223.9,33522.3
76305.4,33603.7
76369.4,33699.4
76413.4,33805.8
76435.9,33918.8
76435.9,34034
76413.4,34146.9
76369.4,34253.3
76305.4,34349.1
76223.9,34430.5
76219.4,34433.6
76219.4,35664.1
76992.5,36437.2
77033.9,36337.2
77097.9,36241.5
77179.4,36160
77275.1,36096.1
77381.5,36052
77494.5,36029.5
77609.6,36029.5
77722.6,36052
77829,36096.1
77924.7,36160
78006.2,36241.5
78052,36310.1
78097.9,36241.5
78179.4,36160
78275.1,36096.1
78381.5,36052
78494.5,36029.5
78609.6,36029.5
78722.6,36052
78829,36096.1
78924.7,36160
79006.2,36241.5
79052,36310.1
79097.9,36241.5
79179.4,36160
79183.9,36157
79183.9,35427.5
79182.2,35409.4
79189.3,35337.3
79210.3,35267.9
79210.3,35267.9
79244.5,35203.9
79290.5,35147.9
79304.5,35136.4
83551.1,30889.8
76320.1,30889.8
76302,30891.5
76284,30889.8
76229.9,30884.4
76160.5,30863.4
76096.5,30829.2
76040.5,30783.2
76029,30769.2
75700.8,30440.9
75589.9,30440.9
75478.9,30418.9
75374.3,30375.5
75280.1,30312.6
75200.1,30232.6
75137.2,30138.4
75093.8,30033.8
75071.7,29922.8
75071.7,29809.5
75093.8,29698.5
75137.2,29593.9
75200.1,29499.7
75280.1,29419.7
75374.3,29356.8
75478.9,29313.4
75589.9,29291.3
75703.1,29291.3
75814.2,29313.4
75918.8,29356.8
76013,29419.7
76093,29499.7
76155.9,29593.9
76199.2,29698.5
76215,29777.7
76219.8,29753.6
76263.1,29649
76326,29554.8
76406.1,29474.8
76500.2,29411.9
76604.9,29368.5
76715.9,29346.5
76829.1,29346.5
76940.2,29368.5
77044.8,29411.9
77138.9,29474.8
77219,29554.8
77246.7,29596.3
79579.5,29596.3
79555.7,29580.3
79475.6,29500.3
79412.7,29406.1
79369.4,29301.5
79347.3,29190.5
79347.3,29077.2
79369.4,28966.2
79412.7,28861.6
79475.6,28767.4
79555.7,28687.4
79649.9,28624.5
79754.5,28581.1
79865.5,28559.1
79978.7,28559.1
80089.8,28581.1
80194.4,28624.5
80288.5,28687.4
80368.6,28767.4
80431.5,28861.6
80474.8,28966.2
80496.9,29077.2
80496.9,29190.5
80474.8,29301.5
80431.5,29406.1
80368.6,29500.3
80288.5,29580.3
80264.7,29596.3
81669.4,29596.3
83515.7,27750
83502.3,27750
83389.4,27727.5
83283,27683.5
83187.2,27619.5
83105.8,27538
83059.9,27469.4
83014,27538
82932.6,27619.5
82836.9,27683.5
82730.5,27727.5
82617.5,27750
82502.3,27750
82389.4,27727.5
82283,27683.5
82187.2,27619.5
82105.8,27538
82059.9,27469.4
Z" /> 
<path style="fill:#000000; fill-opacity:1.0; 
stroke:#000000; stroke-width:100; stroke-opacity:1; 
stroke-linecap:round; stroke-linejoin:round;fill-rule:evenodd;"
d="M 79920.2,35561.9
79920.2,36157
79924.7,36160
80006.2,36241.5
80052,36310.1
80097.9,36241.5
80179.4,36160
80275.1,36096.1
80381.5,36052
80494.5,36029.5
80609.6,36029.5
80722.6,36052
80829,36096.1
80924.7,36160
81006.2,36241.5
81052,36310.1
81097.9,36241.5
81179.4,36160
81227,36128.2
81227,35787.6
81225.5,35771.7
81227.5,35751.2
81231.7,35707.9
81250.3,35646.7
81280.5,35590.2
81280.5,35590.2
81310.9,35553.1
81310.9,35553.1
81321.1,35540.7
81333.5,35530.6
81666.5,35197.6
81664.6,35198.4
81553.5,35220.5
81440.3,35220.5
81329.3,35198.4
81224.7,35155.1
81130.5,35092.1
81050.5,35012.1
80987.5,34917.9
80944.2,34813.3
80922.1,34702.3
80922.1,34589.1
80929.4,34552.7
Z" /> 
<path style="fill:#000000; fill-opacity:1.0; 
stroke:#000000; stroke-width:100; stroke-opacity:1; 
stroke-linecap:round; stroke-linejoin:round;fill-rule:evenodd;"
d="M 81404,34078.1
81440.3,34070.9
81553.5,34070.9
81664.6,34093
81769.2,34136.3
81863.3,34199.2
81943.4,34279.3
82006.3,34373.4
82049.6,34478
82071.7,34589.1
82071.7,34702.3
82049.6,34813.3
82048.9,34815.2
83635,33229.1
83633.1,33229.9
83522,33252
83408.8,33252
83297.8,33229.9
83193.2,33186.5
83099,33123.6
83019,33043.6
82956,32949.4
82912.7,32844.8
82890.6,32733.8
82890.6,32620.6
82897.9,32584.2
Z" /> 
<path style="fill:#000000; fill-opacity:1.0; 
stroke:#000000; stroke-width:100; stroke-opacity:1; 
stroke-linecap:round; stroke-linejoin:round;fill-rule:evenodd;"
d="M 72853,32984.3
73098.8,33230
73112.8,33241.6
73158.8,33297.6
73193,33361.6
73214,33431
73221.2,33503.1
73219.6,33519.3
73223.9,33522.3
73305.4,33603.7
73351.3,33672.3
73397.1,33603.7
73478.6,33522.3
73574.3,33458.3
73680.7,33414.2
73793.7,33391.7
73807,33391.7
72853,32437.8
Z" /> 
<path style="fill:#000000; fill-opacity:1.0; 
stroke:#000000; stroke-width:100; stroke-opacity:1; 
stroke-linecap:round; stroke-linejoin:round;fill-rule:evenodd;"
d="M 72176.3,33390.5
72185.9,33390.5
72219.7,33393.8
72177.4,33342.3
72176.3,33340.2
Z" /> 
<path style="fill:#000000; fill-opacity:1.0; 
stroke:#000000; stroke-width:100; stroke-opacity:1; 
stroke-linecap:round; stroke-linejoin:round;fill-rule:evenodd;"
d="M 84525.9,30956.2
84525.9,30956.2
83372.5,32109.6
83408.8,32102.4
83522,32102.4
83633.1,32124.5
83737.7,32167.8
83831.8,32230.7
83911.9,32310.7
83974.8,32404.9
84018.1,32509.5
84040.2,32620.6
84040.2,32733.8
84018.1,32844.8
84017.4,32846.7
84848.1,32016
84848.1,31555.1
84852.9,31506.1
84867.2,31459
84890.4,31415.6
84921.7,31377.5
84959.7,31346.2
85003.2,31323
85050.3,31308.7
85099.3,31303.9
85676.1,31303.9
85676.1,31023
85598.7,31055.1
85489.6,31076.8
85378.3,31076.8
85269.1,31055.1
85166.3,31012.5
85073.8,30950.6
85012.9,30889.8
84592.3,30889.8
Z" /> 
<path style="fill:#000000; fill-opacity:1.0; 
stroke:#000000; stroke-width:100; stroke-opacity:1; 
stroke-linecap:round; stroke-linejoin:round;fill-rule:evenodd;"
d="M 82045.1,30139.8
82034.9,30152.2
82033.3,30153.5
84362.6,30153.5
84377.5,30149
84431.6,30143.7
84449.7,30141.9
84467.8,30143.7
85003.1,30143.7
85060.7,30086.1
85022.8,30074.6
84979.4,30051.4
84941.3,30020.2
84910.1,29982.1
84886.9,29938.7
84872.6,29891.5
84867.8,29842.5
84867.8,29212.6
84872.6,29163.6
84886.9,29116.5
84910.1,29073
84941.3,29035
84979.4,29003.7
85022.8,28980.5
85070,28966.2
85119,28961.4
85456.5,28961.4
85068.7,28573.6
85013,28629.4
84918.8,28692.3
84814.2,28735.6
84703.1,28757.7
84589.9,28757.7
84478.9,28735.6
84374.3,28692.3
84280.1,28629.4
84200.1,28549.3
84137.2,28455.1
84093.8,28350.5
84071.7,28239.5
84071.7,28126.3
84075,28109.9
Z" /> 
<path style="fill:#000000; fill-opacity:1.0; 
stroke:#000000; stroke-width:100; stroke-opacity:1; 
stroke-linecap:round; stroke-linejoin:round;fill-rule:evenodd;"
d="M 73305.4,28443.6
73223.9,28525
73128.2,28589
73021.8,28633
72908.8,28655.5
72853,28655.5
72853,29609.5
73807,28655.5
73793.7,28655.5
73680.7,28633
73574.3,28589
73478.6,28525
73397.1,28443.6
73351.3,28374.9
Z" /> 
<path style="fill:#000000; fill-opacity:1.0; 
stroke:#000000; stroke-width:100; stroke-opacity:1; 
stroke-linecap:round; stroke-linejoin:round;fill-rule:evenodd;"
d="M 80014,27538
79932.6,27619.5
79836.9,27683.5
79730.5,27727.5
79617.5,27750
79502.3,27750
79496.9,27748.9
79444.7,27801.2
80403.5,27801.2
80462.6,27742.1
80389.4,27727.5
80283,27683.5
80187.2,27619.5
80105.8,27538
80059.9,27469.4
Z" /> 
<path style="fill:#000000; fill-opacity:1.0; 
stroke:#000000; stroke-width:100; stroke-opacity:1; 
stroke-linecap:round; stroke-linejoin:round;fill-rule:evenodd;"
d="M 77551,27801.2
77675.2,27801.2
77625.2,27751.2
77501,27751.2
Z" /> 
<path style="fill:#000000; fill-opacity:1.0; 
stroke:#000000; stroke-width:100; stroke-opacity:1; 
stroke-linecap:round; stroke-linejoin:round;fill-rule:evenodd;"
d="M 84836.9,26647.2
84932.6,26711.2
85014,26792.7
85059.9,26861.3
85105.8,26792.7
85187.2,26711.2
85283,26647.2
85305.8,26637.8
84814,26637.8
Z" /> 
<path style="fill:#000000; fill-opacity:1.0; 
stroke:#000000; stroke-width:100; stroke-opacity:1; 
stroke-linecap:round; stroke-linejoin:round;fill-rule:evenodd;"
d="M 83836.9,26647.2
83932.6,26711.2
84014,26792.7
84059.9,26861.3
84105.8,26792.7
84187.2,26711.2
84283,26647.2
84305.8,26637.8
83814,26637.8
Z" /> 
<path style="fill:#000000; fill-opacity:1.0; 
stroke:#000000; stroke-width:100; stroke-opacity:1; 
stroke-linecap:round; stroke-linejoin:round;fill-rule:evenodd;"
d="M 82836.9,26647.2
82932.6,26711.2
83014,26792.7
83059.9,26861.3
83105.8,26792.7
83187.2,26711.2
83283,26647.2
83305.8,26637.8
82814,26637.8
Z" /> 
<path style="fill:#000000; fill-opacity:1.0; 
stroke:#000000; stroke-width:100; stroke-opacity:1; 
stroke-linecap:round; stroke-linejoin:round;fill-rule:evenodd;"
d="M 81836.9,26647.2
81932.6,26711.2
82014,26792.7
82059.9,26861.3
82105.8,26792.7
82187.2,26711.2
82283,26647.2
82305.8,26637.8
81814,26637.8
Z" /> 
<path style="fill:#000000; fill-opacity:1.0; 
stroke:#000000; stroke-width:100; stroke-opacity:1; 
stroke-linecap:round; stroke-linejoin:round;fill-rule:evenodd;"
d="M 80836.9,26647.2
80932.6,26711.2
81014,26792.7
81059.9,26861.3
81105.8,26792.7
81187.2,26711.2
81283,26647.2
81305.8,26637.8
80814,26637.8
Z" /> 
<path style="fill:#000000; fill-opacity:1.0; 
stroke:#000000; stroke-width:100; stroke-opacity:1; 
stroke-linecap:round; stroke-linejoin:round;fill-rule:evenodd;"
d="M 79836.9,26647.2
79932.6,26711.2
80014,26792.7
80059.9,26861.3
80105.8,26792.7
80187.2,26711.2
80283,26647.2
80305.8,26637.8
79814,26637.8
Z" /> 
<path style="fill:#000000; fill-opacity:1.0; 
stroke:#000000; stroke-width:100; stroke-opacity:1; 
stroke-linecap:round; stroke-linejoin:round;fill-rule:evenodd;"
d="M 78836.9,26647.2
78932.6,26711.2
79014,26792.7
79059.9,26861.3
79105.8,26792.7
79187.2,26711.2
79283,26647.2
79305.8,26637.8
78814,26637.8
Z" /> 
<path style="fill:#000000; fill-opacity:1.0; 
stroke:#000000; stroke-width:100; stroke-opacity:1; 
stroke-linecap:round; stroke-linejoin:round;fill-rule:evenodd;"
d="M 78072.2,26653.1
78103.4,26691.1
78126.7,26734.6
78135.3,26763.1
78187.2,26711.2
78283,26647.2
78305.8,26637.8
78053.6,26637.8
Z" /> 
</g>
</g>
</g>
<g style="fill:#FFFFFF; fill-opacity:1.0; 
stroke:#FFFFFF; stroke-width:100; stroke-opacity:1; 
stroke-linecap:round; stroke-linejoin:round;">
</g>
<g style="fill:#FFFFFF; fill-opacity:1.0; 
stroke:#FFFFFF; stroke-width:0; stroke-opacity:1; 
stroke-linecap:round; stroke-linejoin:round;">
<circle cx="79922.1" cy="29133.9" r="68.8976" /> 
</g>
<g style="fill:#FFFFFF; fill-opacity:1.0; 
stroke:#FFFFFF; stroke-width:39.3701; stroke-opacity:1; 
stroke-linecap:round; stroke-linejoin:round;">
</g>
<g style="fill:#FFFFFF; fill-opacity:1.0; 
stroke:#FFFFFF; stroke-width:0; stroke-opacity:1; 
stroke-linecap:round; stroke-linejoin:round;">
<circle cx="81496.9" cy="34645.7" r="68.8976" /> 
</g>
<g style="fill:#FFFFFF; fill-opacity:1.0; 
stroke:#FFFFFF; stroke-width:39.3701; stroke-opacity:1; 
stroke-linecap:round; stroke-linejoin:round;">
</g>
<g style="fill:#FFFFFF; fill-opacity:1.0; 
stroke:#FFFFFF; stroke-width:0; stroke-opacity:1; 
stroke-linecap:round; stroke-linejoin:round;">
<circle cx="83465.4" cy="32677.2" r="68.8976" /> 
</g>
<g style="fill:#FFFFFF; fill-opacity:1.0; 
stroke:#FFFFFF; stroke-width:39.3701; stroke-opacity:1; 
stroke-linecap:round; stroke-linejoin:round;">
</g>
<g style="fill:#FFFFFF; fill-opacity:1.0; 
stroke:#FFFFFF; stroke-width:0; stroke-opacity:1; 
stroke-linecap:round; stroke-linejoin:round;">
<circle cx="75646.5" cy="29866.1" r="68.8976" /> 
</g>
<g style="fill:#FFFFFF; fill-opacity:1.0; 
stroke:#FFFFFF; stroke-width:39.3701; stroke-opacity:1; 
stroke-linecap:round; stroke-linejoin:round;">
</g>
<g style="fill:#FFFFFF; fill-opacity:1.0; 
stroke:#FFFFFF; stroke-width:0; stroke-opacity:1; 
stroke-linecap:round; stroke-linejoin:round;">
<circle cx="76907.2" cy="27864" r="68.8976" /> 
</g>
<g style="fill:#FFFFFF; fill-opacity:1.0; 
stroke:#FFFFFF; stroke-width:39.3701; stroke-opacity:1; 
stroke-linecap:round; stroke-linejoin:round;">
</g>
<g style="fill:#FFFFFF; fill-opacity:1.0; 
stroke:#FFFFFF; stroke-width:0; stroke-opacity:1; 
stroke-linecap:round; stroke-linejoin:round;">
<circle cx="84646.5" cy="28182.9" r="68.8976" /> 
</g>
<g style="fill:#FFFFFF; fill-opacity:1.0; 
stroke:#FFFFFF; stroke-width:39.3701; stroke-opacity:1; 
stroke-linecap:round; stroke-linejoin:round;">
</g>
<g style="fill:#FFFFFF; fill-opacity:1.0; 
stroke:#FFFFFF; stroke-width:0; stroke-opacity:1; 
stroke-linecap:round; stroke-linejoin:round;">
<circle cx="76772.5" cy="29921.3" r="68.8976" /> 
</g>
<g style="fill:#FFFFFF; fill-opacity:1.0; 
stroke:#FFFFFF; stroke-width:39.3701; stroke-opacity:1; 
stroke-linecap:round; stroke-linejoin:round;">
</g>
<g style="fill:#FFFFFF; fill-opacity:1.0; 
stroke:#FFFFFF; stroke-width:0; stroke-opacity:1; 
stroke-linecap:round; stroke-linejoin:round;">
<circle cx="85433.9" cy="29527.6" r="68.8976" /> 
</g>
<g style="fill:#FFFFFF; fill-opacity:1.0; 
stroke:#FFFFFF; stroke-width:39.3701; stroke-opacity:1; 
stroke-linecap:round; stroke-linejoin:round;">
</g>
<g style="fill:#FFFFFF; fill-opacity:1.0; 
stroke:#FFFFFF; stroke-width:0; stroke-opacity:1; 
stroke-linecap:round; stroke-linejoin:round;">
<circle cx="85433.9" cy="30511.8" r="68.8976" /> 
</g>
<g style="fill:#FFFFFF; fill-opacity:1.0; 
stroke:#FFFFFF; stroke-width:39.3701; stroke-opacity:1; 
stroke-linecap:round; stroke-linejoin:round;">
</g>
<g style="fill:#FFFFFF; fill-opacity:1.0; 
stroke:#FFFFFF; stroke-width:0; stroke-opacity:1; 
stroke-linecap:round; stroke-linejoin:round;">
<circle cx="85433.9" cy="31889.8" r="68.8976" /> 
</g>
<g style="fill:#FFFFFF; fill-opacity:1.0; 
stroke:#FFFFFF; stroke-width:39.3701; stroke-opacity:1; 
stroke-linecap:round; stroke-linejoin:round;">
</g>
<g style="fill:#FFFFFF; fill-opacity:1.0; 
stroke:#FFFFFF; stroke-width:0; stroke-opacity:1; 
stroke-linecap:round; stroke-linejoin:round;">
<circle cx="85433.9" cy="32889.8" r="68.8976" /> 
</g>
<g style="fill:#FFFFFF; fill-opacity:1.0; 
stroke:#FFFFFF; stroke-width:39.3701; stroke-opacity:1; 
stroke-linecap:round; stroke-linejoin:round;">
</g>
<g style="fill:#FFFFFF; fill-opacity:1.0; 
stroke:#FFFFFF; stroke-width:0; stroke-opacity:1; 
stroke-linecap:round; stroke-linejoin:round;">
<circle cx="85433.9" cy="33889.8" r="68.8976" /> 
</g>
<g style="fill:#FFFFFF; fill-opacity:1.0; 
stroke:#FFFFFF; stroke-width:39.3701; stroke-opacity:1; 
stroke-linecap:round; stroke-linejoin:round;">
</g>
<g style="fill:#FFFFFF; fill-opacity:1.0; 
stroke:#FFFFFF; stroke-width:0; stroke-opacity:1; 
stroke-linecap:round; stroke-linejoin:round;">
<circle cx="85433.9" cy="34889.8" r="68.8976" /> 
</g>
<g style="fill:#FFFFFF; fill-opacity:1.0; 
stroke:#FFFFFF; stroke-width:39.3701; stroke-opacity:1; 
stroke-linecap:round; stroke-linejoin:round;">
</g>
<g style="fill:#FFFFFF; fill-opacity:1.0; 
stroke:#FFFFFF; stroke-width:0; stroke-opacity:1; 
stroke-linecap:round; stroke-linejoin:round;">
<circle cx="71851.3" cy="33976.4" r="68.8976" /> 
</g>
<g style="fill:#FFFFFF; fill-opacity:1.0; 
stroke:#FFFFFF; stroke-width:39.3701; stroke-opacity:1; 
stroke-linecap:round; stroke-linejoin:round;">
</g>
<g style="fill:#FFFFFF; fill-opacity:1.0; 
stroke:#FFFFFF; stroke-width:0; stroke-opacity:1; 
stroke-linecap:round; stroke-linejoin:round;">
<circle cx="72851.3" cy="33976.4" r="68.8976" /> 
</g>
<g style="fill:#FFFFFF; fill-opacity:1.0; 
stroke:#FFFFFF; stroke-width:39.3701; stroke-opacity:1; 
stroke-linecap:round; stroke-linejoin:round;">
</g>
<g style="fill:#FFFFFF; fill-opacity:1.0; 
stroke:#FFFFFF; stroke-width:0; stroke-opacity:1; 
stroke-linecap:round; stroke-linejoin:round;">
<circle cx="73851.3" cy="33976.4" r="68.8976" /> 
</g>
<g style="fill:#FFFFFF; fill-opacity:1.0; 
stroke:#FFFFFF; stroke-width:39.3701; stroke-opacity:1; 
stroke-linecap:round; stroke-linejoin:round;">
</g>
<g style="fill:#FFFFFF; fill-opacity:1.0; 
stroke:#FFFFFF; stroke-width:0; stroke-opacity:1; 
stroke-linecap:round; stroke-linejoin:round;">
<circle cx="74851.3" cy="33976.4" r="68.8976" /> 
</g>
<g style="fill:#FFFFFF; fill-opacity:1.0; 
stroke:#FFFFFF; stroke-width:39.3701; stroke-opacity:1; 
stroke-linecap:round; stroke-linejoin:round;">
</g>
<g style="fill:#FFFFFF; fill-opacity:1.0; 
stroke:#FFFFFF; stroke-width:0; stroke-opacity:1; 
stroke-linecap:round; stroke-linejoin:round;">
<circle cx="75851.3" cy="33976.4" r="68.8976" /> 
</g>
<g style="fill:#FFFFFF; fill-opacity:1.0; 
stroke:#FFFFFF; stroke-width:39.3701; stroke-opacity:1; 
stroke-linecap:round; stroke-linejoin:round;">
</g>
<g style="fill:#FFFFFF; fill-opacity:1.0; 
stroke:#FFFFFF; stroke-width:0; stroke-opacity:1; 
stroke-linecap:round; stroke-linejoin:round;">
<circle cx="71851.3" cy="28070.9" r="68.8976" /> 
</g>
<g style="fill:#FFFFFF; fill-opacity:1.0; 
stroke:#FFFFFF; stroke-width:39.3701; stroke-opacity:1; 
stroke-linecap:round; stroke-linejoin:round;">
</g>
<g style="fill:#FFFFFF; fill-opacity:1.0; 
stroke:#FFFFFF; stroke-width:0; stroke-opacity:1; 
stroke-linecap:round; stroke-linejoin:round;">
<circle cx="72851.3" cy="28070.9" r="68.8976" /> 
</g>
<g style="fill:#FFFFFF; fill-opacity:1.0; 
stroke:#FFFFFF; stroke-width:39.3701; stroke-opacity:1; 
stroke-linecap:round; stroke-linejoin:round;">
</g>
<g style="fill:#FFFFFF; fill-opacity:1.0; 
stroke:#FFFFFF; stroke-width:0; stroke-opacity:1; 
stroke-linecap:round; stroke-linejoin:round;">
<circle cx="73851.3" cy="28070.9" r="68.8976" /> 
</g>
<g style="fill:#FFFFFF; fill-opacity:1.0; 
stroke:#FFFFFF; stroke-width:39.3701; stroke-opacity:1; 
stroke-linecap:round; stroke-linejoin:round;">
</g>
<g style="fill:#FFFFFF; fill-opacity:1.0; 
stroke:#FFFFFF; stroke-width:0; stroke-opacity:1; 
stroke-linecap:round; stroke-linejoin:round;">
<circle cx="74851.3" cy="28070.9" r="68.8976" /> 
</g>
<g style="fill:#FFFFFF; fill-opacity:1.0; 
stroke:#FFFFFF; stroke-width:39.3701; stroke-opacity:1; 
stroke-linecap:round; stroke-linejoin:round;">
</g>
<g style="fill:#FFFFFF; fill-opacity:1.0; 
stroke:#FFFFFF; stroke-width:0; stroke-opacity:1; 
stroke-linecap:round; stroke-linejoin:round;">
<circle cx="75851.3" cy="28070.9" r="68.8976" /> 
</g>
<g style="fill:#FFFFFF; fill-opacity:1.0; 
stroke:#FFFFFF; stroke-width:39.3701; stroke-opacity:1; 
stroke-linecap:round; stroke-linejoin:round;">
</g>
<g style="fill:#FFFFFF; fill-opacity:1.0; 
stroke:#FFFFFF; stroke-width:0; stroke-opacity:1; 
stroke-linecap:round; stroke-linejoin:round;">
<circle cx="77552" cy="36614.2" r="68.8976" /> 
</g>
<g style="fill:#FFFFFF; fill-opacity:1.0; 
stroke:#FFFFFF; stroke-width:39.3701; stroke-opacity:1; 
stroke-linecap:round; stroke-linejoin:round;">
</g>
<g style="fill:#FFFFFF; fill-opacity:1.0; 
stroke:#FFFFFF; stroke-width:0; stroke-opacity:1; 
stroke-linecap:round; stroke-linejoin:round;">
<circle cx="78552" cy="36614.2" r="68.8976" /> 
</g>
<g style="fill:#FFFFFF; fill-opacity:1.0; 
stroke:#FFFFFF; stroke-width:39.3701; stroke-opacity:1; 
stroke-linecap:round; stroke-linejoin:round;">
</g>
<g style="fill:#FFFFFF; fill-opacity:1.0; 
stroke:#FFFFFF; stroke-width:0; stroke-opacity:1; 
stroke-linecap:round; stroke-linejoin:round;">
<circle cx="79552" cy="36614.2" r="68.8976" /> 
</g>
<g style="fill:#FFFFFF; fill-opacity:1.0; 
stroke:#FFFFFF; stroke-width:39.3701; stroke-opacity:1; 
stroke-linecap:round; stroke-linejoin:round;">
</g>
<g style="fill:#FFFFFF; fill-opacity:1.0; 
stroke:#FFFFFF; stroke-width:0; stroke-opacity:1; 
stroke-linecap:round; stroke-linejoin:round;">
<circle cx="80552" cy="36614.2" r="68.8976" /> 
</g>
<g style="fill:#FFFFFF; fill-opacity:1.0; 
stroke:#FFFFFF; stroke-width:39.3701; stroke-opacity:1; 
stroke-linecap:round; stroke-linejoin:round;">
</g>
<g style="fill:#FFFFFF; fill-opacity:1.0; 
stroke:#FFFFFF; stroke-width:0; stroke-opacity:1; 
stroke-linecap:round; stroke-linejoin:round;">
<circle cx="81552" cy="36614.2" r="68.8976" /> 
</g>
<g style="fill:#FFFFFF; fill-opacity:1.0; 
stroke:#FFFFFF; stroke-width:39.3701; stroke-opacity:1; 
stroke-linecap:round; stroke-linejoin:round;">
</g>
<g style="fill:#FFFFFF; fill-opacity:1.0; 
stroke:#FFFFFF; stroke-width:0; stroke-opacity:1; 
stroke-linecap:round; stroke-linejoin:round;">
<circle cx="82552" cy="36614.2" r="68.8976" /> 
</g>
<g style="fill:#FFFFFF; fill-opacity:1.0; 
stroke:#FFFFFF; stroke-width:39.3701; stroke-opacity:1; 
stroke-linecap:round; stroke-linejoin:round;">
</g>
<g style="fill:#FFFFFF; fill-opacity:1.0; 
stroke:#FFFFFF; stroke-width:0; stroke-opacity:1; 
stroke-linecap:round; stroke-linejoin:round;">
<circle cx="83552" cy="36614.2" r="68.8976" /> 
</g>
<g style="fill:#FFFFFF; fill-opacity:1.0; 
stroke:#FFFFFF; stroke-width:39.3701; stroke-opacity:1; 
stroke-linecap:round; stroke-linejoin:round;">
</g>
<g style="fill:#FFFFFF; fill-opacity:1.0; 
stroke:#FFFFFF; stroke-width:0; stroke-opacity:1; 
stroke-linecap:round; stroke-linejoin:round;">
<circle cx="84552" cy="36614.2" r="68.8976" /> 
</g>
<g style="fill:#FFFFFF; fill-opacity:1.0; 
stroke:#FFFFFF; stroke-width:39.3701; stroke-opacity:1; 
stroke-linecap:round; stroke-linejoin:round;">
</g>
<g style="fill:#FFFFFF; fill-opacity:1.0; 
stroke:#FFFFFF; stroke-width:0; stroke-opacity:1; 
stroke-linecap:round; stroke-linejoin:round;">
<circle cx="85552" cy="36614.2" r="68.8976" /> 
</g>
<g style="fill:#FFFFFF; fill-opacity:1.0; 
stroke:#FFFFFF; stroke-width:39.3701; stroke-opacity:1; 
stroke-linecap:round; stroke-linejoin:round;">
</g>
<g style="fill:#FFFFFF; fill-opacity:1.0; 
stroke:#FFFFFF; stroke-width:0; stroke-opacity:1; 
stroke-linecap:round; stroke-linejoin:round;">
<circle cx="77559.9" cy="27165.4" r="68.8976" /> 
</g>
<g style="fill:#FFFFFF; fill-opacity:1.0; 
stroke:#FFFFFF; stroke-width:39.3701; stroke-opacity:1; 
stroke-linecap:round; stroke-linejoin:round;">
</g>
<g style="fill:#FFFFFF; fill-opacity:1.0; 
stroke:#FFFFFF; stroke-width:0; stroke-opacity:1; 
stroke-linecap:round; stroke-linejoin:round;">
<circle cx="78559.9" cy="27165.4" r="68.8976" /> 
</g>
<g style="fill:#FFFFFF; fill-opacity:1.0; 
stroke:#FFFFFF; stroke-width:39.3701; stroke-opacity:1; 
stroke-linecap:round; stroke-linejoin:round;">
</g>
<g style="fill:#FFFFFF; fill-opacity:1.0; 
stroke:#FFFFFF; stroke-width:0; stroke-opacity:1; 
stroke-linecap:round; stroke-linejoin:round;">
<circle cx="79559.9" cy="27165.4" r="68.8976" /> 
</g>
<g style="fill:#FFFFFF; fill-opacity:1.0; 
stroke:#FFFFFF; stroke-width:39.3701; stroke-opacity:1; 
stroke-linecap:round; stroke-linejoin:round;">
</g>
<g style="fill:#FFFFFF; fill-opacity:1.0; 
stroke:#FFFFFF; stroke-width:0; stroke-opacity:1; 
stroke-linecap:round; stroke-linejoin:round;">
<circle cx="80559.9" cy="27165.4" r="68.8976" /> 
</g>
<g style="fill:#FFFFFF; fill-opacity:1.0; 
stroke:#FFFFFF; stroke-width:39.3701; stroke-opacity:1; 
stroke-linecap:round; stroke-linejoin:round;">
</g>
<g style="fill:#FFFFFF; fill-opacity:1.0; 
stroke:#FFFFFF; stroke-width:0; stroke-opacity:1; 
stroke-linecap:round; stroke-linejoin:round;">
<circle cx="81559.9" cy="27165.4" r="68.8976" /> 
</g>
<g style="fill:#FFFFFF; fill-opacity:1.0; 
stroke:#FFFFFF; stroke-width:39.3701; stroke-opacity:1; 
stroke-linecap:round; stroke-linejoin:round;">
</g>
<g style="fill:#FFFFFF; fill-opacity:1.0; 
stroke:#FFFFFF; stroke-width:0; stroke-opacity:1; 
stroke-linecap:round; stroke-linejoin:round;">
<circle cx="82559.9" cy="27165.4" r="68.8976" /> 
</g>
<g style="fill:#FFFFFF; fill-opacity:1.0; 
stroke:#FFFFFF; stroke-width:39.3701; stroke-opacity:1; 
stroke-linecap:round; stroke-linejoin:round;">
</g>
<g style="fill:#FFFFFF; fill-opacity:1.0; 
stroke:#FFFFFF; stroke-width:0; stroke-opacity:1; 
stroke-linecap:round; stroke-linejoin:round;">
<circle cx="83559.9" cy="27165.4" r="68.8976" /> 
</g>
<g style="fill:#FFFFFF; fill-opacity:1.0; 
stroke:#FFFFFF; stroke-width:39.3701; stroke-opacity:1; 
stroke-linecap:round; stroke-linejoin:round;">
</g>
<g style="fill:#FFFFFF; fill-opacity:1.0; 
stroke:#FFFFFF; stroke-width:0; stroke-opacity:1; 
stroke-linecap:round; stroke-linejoin:round;">
<circle cx="84559.9" cy="27165.4" r="68.8976" /> 
</g>
<g style="fill:#FFFFFF; fill-opacity:1.0; 
stroke:#FFFFFF; stroke-width:39.3701; stroke-opacity:1; 
stroke-linecap:round; stroke-linejoin:round;">
</g>
<g style="fill:#FFFFFF; fill-opacity:1.0; 
stroke:#FFFFFF; stroke-width:0; stroke-opacity:1; 
stroke-linecap:round; stroke-linejoin:round;">
<circle cx="85559.9" cy="27165.4" r="68.8976" /> 
</g>
<g style="fill:#FFFFFF; fill-opacity:1.0; 
stroke:#FFFFFF; stroke-width:39.3701; stroke-opacity:1; 
stroke-linecap:round; stroke-linejoin:round;">
</g>
<g style="fill:#000000; fill-opacity:1.0; 
stroke:#000000; stroke-width:39.3701; stroke-opacity:1; 
stroke-linecap:round; stroke-linejoin:round;">
</g> 
</svg>
